@startuml
'https://plantuml.com/class-diagram

' GENERATE CLASS DIAGRAM ===========
' Generated at    : Wed May 29 11:49:43 CEST 2024

title Jira Tickets for Status PO and DESIGN REVIEW
hide empty members

legend
Jira Ticket Status
----
PO and DESIGN REVIEW : 2
To Do : 1
----
Jira Ticket Types
----
Epic : 1
Story : 2
end legend


' Tickets =======
class "ARS-56" << (S,lightgreen) >> {
 Summary : Input Fields Validation
 Assigned to : Juan Solano
 Status : PO and DESIGN REVIEW
 Type : Story
 Points : 3.0
Total  Points : 3
}

class "ARS-36" << (S,lightgreen) >> {
 Summary : Landing Page - Input fields Component and Form
 Assigned to : Juan Solano
 Status : PO and DESIGN REVIEW
 Type : Story
 Points : 5.0
Total  Points : 5
}

class "ARS-1" << (E,green) >> {
 Summary : Survey Landing Page
 Assigned to : Juan Solano
 Status : To Do
 Type : Epic
Total  Points : 11
}



' Links =======
"ARS-36" <.. "ARS-1" : Issue split
"ARS-56" <.. "ARS-1" : Issue split


@enduml
