@startuml
'https://plantuml.com/class-diagram

' GENERATE CLASS DIAGRAM ===========
' Generated at    : Wed May 29 11:49:43 CEST 2024

title Jira Tickets for Epic Infrastructure
hide empty members

legend
Jira Ticket Status
----
To Do : 8
Done : 21
BLOCKED : 1
In Progress : 4
----
Jira Ticket Types
----
Subtask : 26
Epic : 1
Story : 7
end legend


' Tickets =======
class "ARS-114" << (S,lightblue) >> {
 Summary : Connect Internet Gateway to VPN and EC2 instances
 Status : To Do
 Type : Subtask
Total  Points : 0
}

class "ARS-113" << (S,lightblue) >> {
 Summary : Create Internet Gateway
 Status : To Do
 Type : Subtask
Total  Points : 0
}

class "ARS-18" << (S,lightgreen) >> {
 Summary : Create Repository
 Assigned to : PAOLO BRUNASTI
 Status : Done
 Type : Story
 Points : 3.0
Total  Points : 3
}

class "ARS-70" << (S,lightblue) >> {
 Summary : Connection with Contentful
 Status : To Do
 Type : Subtask
Total  Points : 0
}

class "ARS-71" << (S,lightblue) >> {
 Summary : Python server code generated from Swagger
 Assigned to : PAOLO BRUNASTI
 Status : Done
 Type : Subtask
Total  Points : 0
}

class "ARS-90" << (S,lightblue) >> {
 Summary : Logging system
 Assigned to : PAOLO BRUNASTI
 Status : Done
 Type : Subtask
Total  Points : 0
}

class "ARS-52" << (S,lightgreen) >> {
 Summary : Prototype BE architecture
 Assigned to : PAOLO BRUNASTI
 Status : Done
 Type : Story
 Points : 5.0
Total  Points : 5
}

class "ARS-96" << (S,lightblue) >> {
 Summary : Create EC2
 Status : Done
 Type : Subtask
Total  Points : 0
}

class "ARS-30" << (S,lightblue) >> {
 Summary : FE Repository
 Assigned to : PAOLO BRUNASTI
 Status : Done
 Type : Subtask
Total  Points : 0
}

class "ARS-97" << (S,lightblue) >> {
 Summary : Create RDS
 Status : Done
 Type : Subtask
Total  Points : 0
}

class "ARS-32" << (E,green) >> {
 Summary : Infrastructure
 Assigned to : PAOLO BRUNASTI
 Status : In Progress
 Type : Epic
Total  Points : 24
}

class "ARS-10" << (S,lightgreen) >> {
 Summary : Customised Survey Landing Page URL
 Assigned to : PAOLO BRUNASTI
 Status : BLOCKED
 Type : Story
 Points : 3.0
Total  Points : 3
}

class "ARS-98" << (S,lightblue) >> {
 Summary : Configure EC2 instance for Python
 Status : Done
 Type : Subtask
Total  Points : 0
}

class "ARS-99" << (S,lightblue) >> {
 Summary : Deploy BE app in EC2
 Status : Done
 Type : Subtask
Total  Points : 0
}

class "ARS-103" << (S,lightblue) >> {
 Summary : Connect EC2 to S3
 Status : To Do
 Type : Subtask
Total  Points : 0
}

class "ARS-102" << (S,lightblue) >> {
 Summary : Create S3
 Status : Done
 Type : Subtask
Total  Points : 0
}

class "ARS-104" << (S,lightblue) >> {
 Summary : Connect to EC2 from Internet
 Status : Done
 Type : Subtask
Total  Points : 0
}

class "ARS-27" << (S,lightgreen) >> {
 Summary : Design the CICD Pipeline
 Assigned to : PAOLO BRUNASTI
 Status : To Do
 Type : Story
 Points : 3.0
Total  Points : 3
}

class "ARS-28" << (S,lightblue) >> {
 Summary : CICD Pipeline for FE
 Status : Done
 Type : Subtask
Total  Points : 0
}

class "ARS-29" << (S,lightblue) >> {
 Summary : CICD Pipeline for BE
 Status : To Do
 Type : Subtask
Total  Points : 0
}

class "ARS-109" << (S,lightblue) >> {
 Summary : Create simple API to test infra
 Status : Done
 Type : Subtask
Total  Points : 0
}

class "ARS-108" << (S,lightblue) >> {
 Summary : Python dependencies
 Status : Done
 Type : Subtask
Total  Points : 0
}

class "ARS-101" << (S,lightblue) >> {
 Summary : Automate deployment of BE app on EC2
 Status : To Do
 Type : Subtask
Total  Points : 0
}

class "ARS-100" << (S,lightblue) >> {
 Summary : Open BE app to FE
 Status : In Progress
 Type : Subtask
Total  Points : 0
}

class "ARS-40" << (S,lightgreen) >> {
 Summary : AWS Environment
 Assigned to : PAOLO BRUNASTI
 Status : In Progress
 Type : Story
 Points : 5.0
Total  Points : 5
}

class "ARS-45" << (S,lightgreen) >> {
 Summary : Review Gitlab Pipeline
 Assigned to : PAOLO BRUNASTI
 Status : Done
 Type : Story
Total  Points : 0
}

class "ARS-89" << (S,lightblue) >> {
 Summary : Spider Net Graphic
 Assigned to : PAOLO BRUNASTI
 Status : Done
 Type : Subtask
Total  Points : 0
}

class "ARS-68" << (S,lightblue) >> {
 Summary : Security
 Assigned to : PAOLO BRUNASTI
 Status : To Do
 Type : Subtask
Total  Points : 0
}

class "ARS-69" << (S,lightblue) >> {
 Summary : PDF Library
 Assigned to : PAOLO BRUNASTI
 Status : Done
 Type : Subtask
Total  Points : 0
}

class "ARS-86" << (S,lightblue) >> {
 Summary : Create base data (Language, ..)
 Assigned to : PAOLO BRUNASTI
 Status : Done
 Type : Subtask
Total  Points : 0
}

class "ARS-21" << (S,lightblue) >> {
 Summary : Create GitHub repository for BE
 Assigned to : PAOLO BRUNASTI
 Status : Done
 Type : Subtask
Total  Points : 0
}

class "ARS-65" << (S,lightblue) >> {
 Summary : ORM definition of User
 Assigned to : PAOLO BRUNASTI
 Status : Done
 Type : Subtask
Total  Points : 0
}

class "ARS-88" << (S,lightgreen) >> {
 Summary : Extends BE architecture
 Assigned to : PAOLO BRUNASTI
 Status : In Progress
 Type : Story
 Points : 5.0
Total  Points : 5
}

class "ARS-66" << (S,lightblue) >> {
 Summary : DB Connection pooling
 Assigned to : PAOLO BRUNASTI
 Status : Done
 Type : Subtask
Total  Points : 0
}



' Links =======

' Parents =======
"ARS-40" <|-- "ARS-114"
"ARS-40" <|-- "ARS-113"
"ARS-32" <|-- "ARS-18"
"ARS-88" <|-- "ARS-70"
"ARS-52" <|-- "ARS-71"
"ARS-88" <|-- "ARS-90"
"ARS-32" <|-- "ARS-52"
"ARS-40" <|-- "ARS-96"
"ARS-18" <|-- "ARS-30"
"ARS-40" <|-- "ARS-97"
"ARS-32" <|-- "ARS-10"
"ARS-40" <|-- "ARS-98"
"ARS-40" <|-- "ARS-99"
"ARS-40" <|-- "ARS-103"
"ARS-40" <|-- "ARS-102"
"ARS-40" <|-- "ARS-104"
"ARS-32" <|-- "ARS-27"
"ARS-27" <|-- "ARS-28"
"ARS-27" <|-- "ARS-29"
"ARS-40" <|-- "ARS-109"
"ARS-88" <|-- "ARS-108"
"ARS-40" <|-- "ARS-101"
"ARS-40" <|-- "ARS-100"
"ARS-32" <|-- "ARS-40"
"ARS-32" <|-- "ARS-45"
"ARS-88" <|-- "ARS-89"
"ARS-88" <|-- "ARS-68"
"ARS-52" <|-- "ARS-69"
"ARS-52" <|-- "ARS-86"
"ARS-18" <|-- "ARS-21"
"ARS-52" <|-- "ARS-65"
"ARS-32" <|-- "ARS-88"
"ARS-52" <|-- "ARS-66"

"ARS-18" <.. "ARS-37" : Polaris issue link

"ARS-18" <.. "ARS-38" : Polaris issue link

"ARS-52" <.. "ARS-88" : Cloners

"ARS-27" <.. "ARS-18" : Blocks

"ARS-27" <.. "ARS-40" : Blocks

"ARS-28" <.. "ARS-38" : Cloners

"ARS-88" <.. "ARS-52" : Blocks



@enduml
