@startuml
'https://plantuml.com/class-diagram

' GENERATE CLASS DIAGRAM ===========
' Generated at    : Wed May 29 11:49:43 CEST 2024

title Jira Tickets for Status Done
hide empty members

legend
Jira Ticket Status
----
Done : 51
In Progress : 1
----
Jira Ticket Types
----
Spike : 1
Subtask : 20
Bug : 1
Story : 30
end legend


' Tickets =======
class "ARS-16" << (S,lightgreen) >> {
 Summary : Contentful Content Modeling for Landing Page
 Assigned to : Juan Solano
 Status : Done
 Type : Story
 Points : 5.0
Total  Points : 5
}

class "ARS-17" << (S,lightgreen) >> {
 Summary : Generate Content Types GraphQL Queries for Landing Page
 Assigned to : Juan Solano
 Status : Done
 Type : Story
 Points : 5.0
Total  Points : 5
}

class "ARS-18" << (S,lightgreen) >> {
 Summary : Create Repository
 Assigned to : PAOLO BRUNASTI
 Status : Done
 Type : Story
 Points : 3.0
Total  Points : 3
}

class "ARS-19" << (S,lightgreen) >> {
 Summary : Create NUXT -Vue2 project FE
 Assigned to : Juan Solano
 Status : Done
 Type : Story
 Points : 3.0
Total  Points : 3
}

class "ARS-112" << (S,lightblue) >> {
 Summary :  Plan session with Max
 Status : Done
 Type : Subtask
Total  Points : 0
}

class "ARS-50" << (S,lightblue) >> {
 Summary : Update User structure with info from Figma
 Assigned to : PAOLO BRUNASTI
 Status : Done
 Type : Subtask
Total  Points : 0
}

class "ARS-90" << (S,lightblue) >> {
 Summary : Logging system
 Assigned to : PAOLO BRUNASTI
 Status : Done
 Type : Subtask
Total  Points : 0
}

class "ARS-57" << (S,lightgreen) >> {
 Summary : Banner component
 Assigned to : Juan Solano
 Status : Done
 Type : Story
 Points : 3.0
Total  Points : 3
}

class "ARS-14" << (S,lightgreen) >> {
 Summary : Set up Contentful Account
 Assigned to : Juan Solano
 Status : Done
 Type : Story
 Points : 2.0
Total  Points : 2
}

class "ARS-58" << (S,lightgreen) >> {
 Summary : Button components
 Assigned to : Juan Solano
 Status : Done
 Type : Story
 Points : 5.0
Total  Points : 5
}

class "ARS-15" << (S,lightgreen) >> {
 Summary : Contentful Integration FE
 Assigned to : Juan Solano
 Status : Done
 Type : Story
 Points : 3.0
Total  Points : 3
}

class "ARS-96" << (S,lightblue) >> {
 Summary : Create EC2
 Status : Done
 Type : Subtask
Total  Points : 0
}

class "ARS-52" << (S,lightgreen) >> {
 Summary : Prototype BE architecture
 Assigned to : PAOLO BRUNASTI
 Status : Done
 Type : Story
 Points : 5.0
Total  Points : 5
}

class "ARS-97" << (S,lightblue) >> {
 Summary : Create RDS
 Status : Done
 Type : Subtask
Total  Points : 0
}

class "ARS-53" << (S,lightgreen) >> {
 Summary : Navbar component for Landing Page
 Assigned to : Juan Solano
 Status : Done
 Type : Story
 Points : 3.0
Total  Points : 3
}

class "ARS-98" << (S,lightblue) >> {
 Summary : Configure EC2 instance for Python
 Status : Done
 Type : Subtask
Total  Points : 0
}

class "ARS-54" << (S,lightgreen) >> {
 Summary : Footer component
 Assigned to : Juan Solano
 Status : Done
 Type : Story
 Points : 3.0
Total  Points : 3
}

class "ARS-99" << (S,lightblue) >> {
 Summary : Deploy BE app in EC2
 Status : Done
 Type : Subtask
Total  Points : 0
}

class "ARS-55" << (S,lightgreen) >> {
 Summary : Typography component
 Assigned to : Juan Solano
 Status : Done
 Type : Story
 Points : 5.0
Total  Points : 5
}

class "ARS-28" << (S,lightblue) >> {
 Summary : CICD Pipeline for FE
 Status : Done
 Type : Subtask
Total  Points : 0
}

class "ARS-62" << (X,lightblue) >> {
 Summary : Spike - AI personalised roadmap
 Assigned to : Pablo Uhalte
 Status : Done
 Type : Spike
Total  Points : 0
}

class "ARS-23" << (S,lightgreen) >> {
 Summary : Model BE DB
 Assigned to : PAOLO BRUNASTI
 Status : Done
 Type : Story
 Points : 5.0
Total  Points : 5
}

class "ARS-67" << (S,lightgreen) >> {
 Summary : Implement FE API - user endpoints
 Assigned to : Nneka Tielman
 Status : Done
 Type : Story
 Points : 3.0
Total  Points : 3
}

class "ARS-24" << (S,lightgreen) >> {
 Summary : DB Connection from Python
 Assigned to : PAOLO BRUNASTI
 Status : Done
 Type : Story
 Points : 3.0
Total  Points : 3
}

class "ARS-25" << (S,lightgreen) >> {
 Summary : Design APIs
 Assigned to : Nneka Tielman
 Status : Done
 Type : Story
 Points : 5.0
Total  Points : 5
}

class "ARS-69" << (S,lightblue) >> {
 Summary : PDF Library
 Assigned to : PAOLO BRUNASTI
 Status : Done
 Type : Subtask
Total  Points : 0
}

class "ARS-26" << (S,lightgreen) >> {
 Summary : Implement APIs
 Assigned to : Nneka Tielman
 Status : Done
 Type : Story
Total  Points : 0
}

class "ARS-21" << (S,lightblue) >> {
 Summary : Create GitHub repository for BE
 Assigned to : PAOLO BRUNASTI
 Status : Done
 Type : Subtask
Total  Points : 0
}

class "ARS-65" << (S,lightblue) >> {
 Summary : ORM definition of User
 Assigned to : PAOLO BRUNASTI
 Status : Done
 Type : Subtask
Total  Points : 0
}

class "ARS-22" << (S,lightgreen) >> {
 Summary : Define BE architecture
 Assigned to : PAOLO BRUNASTI
 Status : Done
 Type : Story
 Points : 5.0
Total  Points : 5
}

class "ARS-66" << (S,lightblue) >> {
 Summary : DB Connection pooling
 Assigned to : PAOLO BRUNASTI
 Status : Done
 Type : Subtask
Total  Points : 0
}

class "ARS-38" << (S,lightgreen) >> {
 Summary : Generate Gitlab Pipeline
 Assigned to : Juan Solano
 Status : Done
 Type : Story
 Points : 3.0
Total  Points : 3
}

class "ARS-71" << (S,lightblue) >> {
 Summary : Python server code generated from Swagger
 Assigned to : PAOLO BRUNASTI
 Status : Done
 Type : Subtask
Total  Points : 0
}

class "ARS-73" << (S,lightgreen) >> {
 Summary : Implement FE API - response endpoints
 Assigned to : Nneka Tielman
 Status : Done
 Type : Story
 Points : 5.0
Total  Points : 5
}

class "ARS-34" << (S,lightgreen) >> {
 Summary : All Survey Pages - Create Theme
 Assigned to : Juan Solano
 Status : Done
 Type : Story
 Points : 3.0
Total  Points : 3
}

class "ARS-78" << (S,lightgreen) >> {
 Summary : Create Image Component for Landing Page
 Assigned to : Juan Solano
 Status : Done
 Type : Story
 Points : 3.0
Total  Points : 3
}

class "ARS-37" << (S,lightgreen) >> {
 Summary : Create Eslint modules
 Assigned to : Juan Solano
 Status : Done
 Type : Story
 Points : 3.0
Total  Points : 3
}

class "ARS-30" << (S,lightblue) >> {
 Summary : FE Repository
 Assigned to : PAOLO BRUNASTI
 Status : Done
 Type : Subtask
Total  Points : 0
}

class "ARS-77" << (S,lightgreen) >> {
 Summary : Add Font to the Tailwind Config
 Assigned to : Juan Solano
 Status : Done
 Type : Story
 Points : 2.0
Total  Points : 2
}

class "ARS-102" << (S,lightblue) >> {
 Summary : Create S3
 Status : Done
 Type : Subtask
Total  Points : 0
}

class "ARS-104" << (S,lightblue) >> {
 Summary : Connect to EC2 from Internet
 Status : Done
 Type : Subtask
Total  Points : 0
}

class "ARS-49" << (S,lightgreen) >> {
 Summary : research connect Contentful to postgreSQL
 Assigned to : Nneka Tielman
 Status : Done
 Type : Story
 Points : 3.0
Total  Points : 3
}

class "ARS-106" << (B,red) >> {
 Summary : Correct attributes name in tables to match table name
 Assigned to : PAOLO BRUNASTI
 Status : Done
 Type : Bug
 Points : 2.0
Total  Points : 2
}

class "ARS-109" << (S,lightblue) >> {
 Summary : Create simple API to test infra
 Status : Done
 Type : Subtask
Total  Points : 0
}

class "ARS-108" << (S,lightblue) >> {
 Summary : Python dependencies
 Status : Done
 Type : Subtask
Total  Points : 0
}

class "ARS-81" << (S,lightgreen) >> {
 Summary : Define the algorithm to compute the results
 Status : Done
 Type : Story
Total  Points : 0
}

class "ARS-84" << (S,lightgreen) >> {
 Summary : Create test data in the DB
 Assigned to : PAOLO BRUNASTI
 Status : Done
 Type : Story
 Points : 2.0
Total  Points : 2
}

class "ARS-45" << (S,lightgreen) >> {
 Summary : Review Gitlab Pipeline
 Assigned to : PAOLO BRUNASTI
 Status : Done
 Type : Story
Total  Points : 0
}

class "ARS-89" << (S,lightblue) >> {
 Summary : Spider Net Graphic
 Assigned to : PAOLO BRUNASTI
 Status : Done
 Type : Subtask
Total  Points : 0
}

class "ARS-47" << (S,lightgreen) >> {
 Summary : Create View for results of the survey
 Assigned to : PAOLO BRUNASTI
 Status : Done
 Type : Story
 Points : 1.0
Total  Points : 1
}

class "ARS-86" << (S,lightblue) >> {
 Summary : Create base data (Language, ..)
 Assigned to : PAOLO BRUNASTI
 Status : Done
 Type : Subtask
Total  Points : 0
}

class "ARS-88" << (S,lightgreen) >> {
 Summary : Extends BE architecture
 Assigned to : PAOLO BRUNASTI
 Status : In Progress
 Type : Story
 Points : 5.0
Total  Points : 5
}



' Links =======
"ARS-18" <.. "ARS-37" : Polaris issue link
"ARS-18" <.. "ARS-38" : Polaris issue link
"ARS-28" <.. "ARS-38" : Cloners
"ARS-26" <.. "ARS-25" : Blocks
"ARS-22" <.. "ARS-52" : Cloners
"ARS-47" <.. "ARS-23" : Relates
"ARS-52" <.. "ARS-88" : Cloners
"ARS-67" <.. "ARS-26" : Issue split
"ARS-73" <.. "ARS-26" : Issue split


@enduml
