@startuml
'https://plantuml.com/class-diagram

' GENERATE CLASS DIAGRAM ===========
' Generated at    : Wed May 29 11:49:43 CEST 2024

title Jira Tickets for Status In Progress
hide empty members

legend
Jira Ticket Status
----
Done : 2
To Do : 1
In Progress : 9
----
Jira Ticket Types
----
Subtask : 1
Epic : 2
Story : 9
end legend


' Tickets =======
class "ARS-116" << (S,lightgreen) >> {
 Summary : Questions Page GraphQL queries
 Assigned to : Juan Solano
 Status : In Progress
 Type : Story
 Points : 3.0
Total  Points : 3
}

class "ARS-40" << (S,lightgreen) >> {
 Summary : AWS Environment
 Assigned to : PAOLO BRUNASTI
 Status : In Progress
 Type : Story
 Points : 5.0
Total  Points : 5
}

class "ARS-26" << (S,lightgreen) >> {
 Summary : Implement APIs
 Assigned to : Nneka Tielman
 Status : Done
 Type : Story
Total  Points : 0
}

class "ARS-74" << (S,lightgreen) >> {
 Summary : Implement FE API - submit survey endpoint
 Status : To Do
 Type : Story
 Points : 8.0
Total  Points : 8
}

class "ARS-52" << (S,lightgreen) >> {
 Summary : Prototype BE architecture
 Assigned to : PAOLO BRUNASTI
 Status : Done
 Type : Story
 Points : 5.0
Total  Points : 5
}

class "ARS-20" << (E,green) >> {
 Summary : Back End for Survey
 Assigned to : PAOLO BRUNASTI
 Status : In Progress
 Type : Epic
Total  Points : 94
}

class "ARS-75" << (S,lightgreen) >> {
 Summary : Generate pdf with spider graph
 Assigned to : Pablo Uhalte
 Status : In Progress
 Type : Story
 Points : 8.0
Total  Points : 8
}

class "ARS-32" << (E,green) >> {
 Summary : Infrastructure
 Assigned to : PAOLO BRUNASTI
 Status : In Progress
 Type : Epic
Total  Points : 24
}

class "ARS-76" << (S,lightgreen) >> {
 Summary : Set up Contentful to DB webhook
 Assigned to : Nneka Tielman
 Status : In Progress
 Type : Story
 Points : 13.0
Total  Points : 13
}

class "ARS-111" << (S,lightgreen) >> {
 Summary : Discuss scope and timelines
 Assigned to : Cees de Gooijer
 Status : In Progress
 Type : Story
 Points : 5.0
Total  Points : 5
}

class "ARS-88" << (S,lightgreen) >> {
 Summary : Extends BE architecture
 Assigned to : PAOLO BRUNASTI
 Status : In Progress
 Type : Story
 Points : 5.0
Total  Points : 5
}

class "ARS-100" << (S,lightblue) >> {
 Summary : Open BE app to FE
 Status : In Progress
 Type : Subtask
Total  Points : 0
}



' Links =======
"ARS-75" <.. "ARS-74" : Issue split
"ARS-76" <.. "ARS-26" : Relates
"ARS-76" <.. "ARS-52" : Relates
"ARS-76" <.. "ARS-88" : Relates
"ARS-88" <.. "ARS-52" : Blocks


@enduml
