@startuml
'https://plantuml.com/class-diagram

' GENERATE CLASS DIAGRAM ===========
' Generated at    : Wed May 29 11:49:43 CEST 2024

title Jira Tickets general diagram
hide empty members

legend
Jira Ticket Status
----
To Do : 49
Done : 51
PO and DESIGN REVIEW : 2
BLOCKED : 2
In Progress : 9
TECH REVIEW (pls tag reviewer) : 2
----
Jira Ticket Types
----
Spike : 1
Subtask : 35
Epic : 7
Bug : 4
Story : 68
end legend


' Jira Tickets =======
class "ARS-114" << (S,lightblue) >> {
 Summary : Connect Internet Gateway to VPN and EC2 instances
 Status : To Do
 Type : Subtask
Total  Points : 0
}

class "ARS-113" << (S,lightblue) >> {
 Summary : Create Internet Gateway
 Status : To Do
 Type : Subtask
Total  Points : 0
}

class "ARS-116" << (S,lightgreen) >> {
 Summary : Questions Page GraphQL queries
 Assigned to : Juan Solano
 Status : In Progress
 Type : Story
 Points : 3.0
Total  Points : 3
}

class "ARS-115" << (B,red) >> {
 Summary : Correct the URL of /Admin/post_admin
 Assigned to : PAOLO BRUNASTI
 Status : TECH REVIEW (pls tag reviewer)
 Type : Bug
 Points : 1.0
Total  Points : 1
}

class "ARS-118" << (B,red) >> {
 Summary : Avoid duplication of users in POST /users execution
 Status : To Do
 Type : Bug
 Points : 3.0
Total  Points : 3
}

class "ARS-16" << (S,lightgreen) >> {
 Summary : Contentful Content Modeling for Landing Page
 Assigned to : Juan Solano
 Status : Done
 Type : Story
 Points : 5.0
Total  Points : 5
}

class "ARS-117" << (S,lightgreen) >> {
 Summary : Add execution time computing to all endpoints
 Status : To Do
 Type : Story
 Points : 3.0
Total  Points : 3
}

class "ARS-17" << (S,lightgreen) >> {
 Summary : Generate Content Types GraphQL Queries for Landing Page
 Assigned to : Juan Solano
 Status : Done
 Type : Story
 Points : 5.0
Total  Points : 5
}

class "ARS-18" << (S,lightgreen) >> {
 Summary : Create Repository
 Assigned to : PAOLO BRUNASTI
 Status : Done
 Type : Story
 Points : 3.0
Total  Points : 3
}

class "ARS-119" << (B,red) >> {
 Summary : Add endpoints to get the "tables" values
 Status : To Do
 Type : Bug
 Points : 3.0
Total  Points : 3
}

class "ARS-19" << (S,lightgreen) >> {
 Summary : Create NUXT -Vue2 project FE
 Assigned to : Juan Solano
 Status : Done
 Type : Story
 Points : 3.0
Total  Points : 3
}

class "ARS-110" << (S,lightgreen) >> {
 Summary : Content Modelling for Results Page
 Status : To Do
 Type : Story
Total  Points : 0
}

class "ARS-112" << (S,lightblue) >> {
 Summary :  Plan session with Max
 Status : Done
 Type : Subtask
Total  Points : 0
}

class "ARS-111" << (S,lightgreen) >> {
 Summary : Discuss scope and timelines
 Assigned to : Cees de Gooijer
 Status : In Progress
 Type : Story
 Points : 5.0
Total  Points : 5
}

class "ARS-92" << (S,lightgreen) >> {
 Summary : Integration between BE and FE from the Landing Page
 Assigned to : Juan Solano
 Status : BLOCKED
 Type : Story
 Points : 3.0
Total  Points : 3
}

class "ARS-93" << (S,lightgreen) >> {
 Summary : Questions Page - Dimension component
 Assigned to : Juan Solano
 Status : To Do
 Type : Story
 Points : 5.0
Total  Points : 5
}

class "ARS-94" << (S,lightgreen) >> {
 Summary : Questions Page - Radio buttons with text
 Assigned to : Juan Solano
 Status : To Do
 Type : Story
 Points : 5.0
Total  Points : 5
}

class "ARS-95" << (S,lightgreen) >> {
 Summary : Questions Page - Previous and Next button
 Status : To Do
 Type : Story
Total  Points : 0
}

class "ARS-90" << (S,lightblue) >> {
 Summary : Logging system
 Assigned to : PAOLO BRUNASTI
 Status : Done
 Type : Subtask
Total  Points : 0
}

class "ARS-91" << (S,lightgreen) >> {
 Summary : Content Modelling for Questions Page
 Assigned to : Nneka Tielman
 Status : TECH REVIEW (pls tag reviewer)
 Type : Story
 Points : 5.0
Total  Points : 5
}

class "ARS-12" << (S,lightblue) >> {
 Summary : Send email to customer with the PDF as attachment
 Assigned to : PAOLO BRUNASTI
 Status : To Do
 Type : Subtask
Total  Points : 0
}

class "ARS-13" << (S,lightblue) >> {
 Summary : Activation of the process of generating and sending the email
 Assigned to : PAOLO BRUNASTI
 Status : To Do
 Type : Subtask
Total  Points : 0
}

class "ARS-14" << (S,lightgreen) >> {
 Summary : Set up Contentful Account
 Assigned to : Juan Solano
 Status : Done
 Type : Story
 Points : 2.0
Total  Points : 2
}

class "ARS-15" << (S,lightgreen) >> {
 Summary : Contentful Integration FE
 Assigned to : Juan Solano
 Status : Done
 Type : Story
 Points : 3.0
Total  Points : 3
}

class "ARS-96" << (S,lightblue) >> {
 Summary : Create EC2
 Status : Done
 Type : Subtask
Total  Points : 0
}

class "ARS-97" << (S,lightblue) >> {
 Summary : Create RDS
 Status : Done
 Type : Subtask
Total  Points : 0
}

class "ARS-98" << (S,lightblue) >> {
 Summary : Configure EC2 instance for Python
 Status : Done
 Type : Subtask
Total  Points : 0
}

class "ARS-10" << (S,lightgreen) >> {
 Summary : Customised Survey Landing Page URL
 Assigned to : PAOLO BRUNASTI
 Status : BLOCKED
 Type : Story
 Points : 3.0
Total  Points : 3
}

class "ARS-99" << (S,lightblue) >> {
 Summary : Deploy BE app in EC2
 Status : Done
 Type : Subtask
Total  Points : 0
}

class "ARS-11" << (S,lightblue) >> {
 Summary : Generate the PDF with the report for a single survey response
 Assigned to : PAOLO BRUNASTI
 Status : To Do
 Type : Subtask
Total  Points : 0
}

class "ARS-27" << (S,lightgreen) >> {
 Summary : Design the CICD Pipeline
 Assigned to : PAOLO BRUNASTI
 Status : To Do
 Type : Story
 Points : 3.0
Total  Points : 3
}

class "ARS-28" << (S,lightblue) >> {
 Summary : CICD Pipeline for FE
 Status : Done
 Type : Subtask
Total  Points : 0
}

class "ARS-29" << (S,lightblue) >> {
 Summary : CICD Pipeline for BE
 Status : To Do
 Type : Subtask
Total  Points : 0
}

class "ARS-23" << (S,lightgreen) >> {
 Summary : Model BE DB
 Assigned to : PAOLO BRUNASTI
 Status : Done
 Type : Story
 Points : 5.0
Total  Points : 5
}

class "ARS-24" << (S,lightgreen) >> {
 Summary : DB Connection from Python
 Assigned to : PAOLO BRUNASTI
 Status : Done
 Type : Story
 Points : 3.0
Total  Points : 3
}

class "ARS-25" << (S,lightgreen) >> {
 Summary : Design APIs
 Assigned to : Nneka Tielman
 Status : Done
 Type : Story
 Points : 5.0
Total  Points : 5
}

class "ARS-26" << (S,lightgreen) >> {
 Summary : Implement APIs
 Assigned to : Nneka Tielman
 Status : Done
 Type : Story
Total  Points : 0
}

class "ARS-20" << (E,green) >> {
 Summary : Back End for Survey
 Assigned to : PAOLO BRUNASTI
 Status : In Progress
 Type : Epic
Total  Points : 94
}

class "ARS-21" << (S,lightblue) >> {
 Summary : Create GitHub repository for BE
 Assigned to : PAOLO BRUNASTI
 Status : Done
 Type : Subtask
Total  Points : 0
}

class "ARS-22" << (S,lightgreen) >> {
 Summary : Define BE architecture
 Assigned to : PAOLO BRUNASTI
 Status : Done
 Type : Story
 Points : 5.0
Total  Points : 5
}

class "ARS-38" << (S,lightgreen) >> {
 Summary : Generate Gitlab Pipeline
 Assigned to : Juan Solano
 Status : Done
 Type : Story
 Points : 3.0
Total  Points : 3
}

class "ARS-39" << (S,lightblue) >> {
 Summary : Investigate HubSpot integration
 Assigned to : PAOLO BRUNASTI
 Status : To Do
 Type : Subtask
Total  Points : 0
}

class "ARS-34" << (S,lightgreen) >> {
 Summary : All Survey Pages - Create Theme
 Assigned to : Juan Solano
 Status : Done
 Type : Story
 Points : 3.0
Total  Points : 3
}

class "ARS-36" << (S,lightgreen) >> {
 Summary : Landing Page - Input fields Component and Form
 Assigned to : Juan Solano
 Status : PO and DESIGN REVIEW
 Type : Story
 Points : 5.0
Total  Points : 5
}

class "ARS-37" << (S,lightgreen) >> {
 Summary : Create Eslint modules
 Assigned to : Juan Solano
 Status : Done
 Type : Story
 Points : 3.0
Total  Points : 3
}

class "ARS-30" << (S,lightblue) >> {
 Summary : FE Repository
 Assigned to : PAOLO BRUNASTI
 Status : Done
 Type : Subtask
Total  Points : 0
}

class "ARS-31" << (E,green) >> {
 Summary : Front End for Survey
 Status : To Do
 Type : Epic
Total  Points : 0
}

class "ARS-32" << (E,green) >> {
 Summary : Infrastructure
 Assigned to : PAOLO BRUNASTI
 Status : In Progress
 Type : Epic
Total  Points : 24
}

class "ARS-33" << (S,lightgreen) >> {
 Summary : Questions Page - Save Survey Progress
 Status : To Do
 Type : Story
Total  Points : 0
}

class "ARS-49" << (S,lightgreen) >> {
 Summary : research connect Contentful to postgreSQL
 Assigned to : Nneka Tielman
 Status : Done
 Type : Story
 Points : 3.0
Total  Points : 3
}

class "ARS-40" << (S,lightgreen) >> {
 Summary : AWS Environment
 Assigned to : PAOLO BRUNASTI
 Status : In Progress
 Type : Story
 Points : 5.0
Total  Points : 5
}

class "ARS-45" << (S,lightgreen) >> {
 Summary : Review Gitlab Pipeline
 Assigned to : PAOLO BRUNASTI
 Status : Done
 Type : Story
Total  Points : 0
}

class "ARS-47" << (S,lightgreen) >> {
 Summary : Create View for results of the survey
 Assigned to : PAOLO BRUNASTI
 Status : Done
 Type : Story
 Points : 1.0
Total  Points : 1
}

class "ARS-48" << (S,lightgreen) >> {
 Summary : Questions Page - Scroll progress bar
 Status : To Do
 Type : Story
 Points : 5.0
Total  Points : 5
}

class "ARS-41" << (S,lightgreen) >> {
 Summary : Questions Page - Personalised with company name
 Status : To Do
 Type : Story
Total  Points : 0
}

class "ARS-42" << (S,lightgreen) >> {
 Summary : Results Page - Personalised Thank you message
 Status : To Do
 Type : Story
Total  Points : 0
}

class "ARS-43" << (S,lightgreen) >> {
 Summary : Survey Hubspot integration
 Assigned to : PAOLO BRUNASTI
 Status : To Do
 Type : Story
 Points : 8.0
Total  Points : 8
}

class "ARS-50" << (S,lightblue) >> {
 Summary : Update User structure with info from Figma
 Assigned to : PAOLO BRUNASTI
 Status : Done
 Type : Subtask
Total  Points : 0
}

class "ARS-56" << (S,lightgreen) >> {
 Summary : Input Fields Validation
 Assigned to : Juan Solano
 Status : PO and DESIGN REVIEW
 Type : Story
 Points : 3.0
Total  Points : 3
}

class "ARS-57" << (S,lightgreen) >> {
 Summary : Banner component
 Assigned to : Juan Solano
 Status : Done
 Type : Story
 Points : 3.0
Total  Points : 3
}

class "ARS-58" << (S,lightgreen) >> {
 Summary : Button components
 Assigned to : Juan Solano
 Status : Done
 Type : Story
 Points : 5.0
Total  Points : 5
}

class "ARS-59" << (S,lightblue) >> {
 Summary : Connect tool to the database 
 Assigned to : Pablo Uhalte
 Status : To Do
 Type : Subtask
Total  Points : 0
}

class "ARS-52" << (S,lightgreen) >> {
 Summary : Prototype BE architecture
 Assigned to : PAOLO BRUNASTI
 Status : Done
 Type : Story
 Points : 5.0
Total  Points : 5
}

class "ARS-53" << (S,lightgreen) >> {
 Summary : Navbar component for Landing Page
 Assigned to : Juan Solano
 Status : Done
 Type : Story
 Points : 3.0
Total  Points : 3
}

class "ARS-54" << (S,lightgreen) >> {
 Summary : Footer component
 Assigned to : Juan Solano
 Status : Done
 Type : Story
 Points : 3.0
Total  Points : 3
}

class "ARS-55" << (S,lightgreen) >> {
 Summary : Typography component
 Assigned to : Juan Solano
 Status : Done
 Type : Story
 Points : 5.0
Total  Points : 5
}

class "ARS-60" << (S,lightblue) >> {
 Summary : Cleanse and standardize data coming from the responses
 Assigned to : Pablo Uhalte
 Status : To Do
 Type : Subtask
Total  Points : 0
}

class "ARS-61" << (S,lightblue) >> {
 Summary : Creation of the visuals
 Assigned to : Pablo Uhalte
 Status : To Do
 Type : Subtask
Total  Points : 0
}

class "ARS-62" << (X,lightblue) >> {
 Summary : Spike - AI personalised roadmap
 Assigned to : Pablo Uhalte
 Status : Done
 Type : Spike
Total  Points : 0
}

class "ARS-67" << (S,lightgreen) >> {
 Summary : Implement FE API - user endpoints
 Assigned to : Nneka Tielman
 Status : Done
 Type : Story
 Points : 3.0
Total  Points : 3
}

class "ARS-68" << (S,lightblue) >> {
 Summary : Security
 Assigned to : PAOLO BRUNASTI
 Status : To Do
 Type : Subtask
Total  Points : 0
}

class "ARS-69" << (S,lightblue) >> {
 Summary : PDF Library
 Assigned to : PAOLO BRUNASTI
 Status : Done
 Type : Subtask
Total  Points : 0
}

class "ARS-63" << (S,lightgreen) >> {
 Summary : Implement Analytics API - user endpoints
 Status : To Do
 Type : Story
 Points : 3.0
Total  Points : 3
}

class "ARS-64" << (S,lightgreen) >> {
 Summary : Auth for Analytics API
 Status : To Do
 Type : Story
Total  Points : 0
}

class "ARS-65" << (S,lightblue) >> {
 Summary : ORM definition of User
 Assigned to : PAOLO BRUNASTI
 Status : Done
 Type : Subtask
Total  Points : 0
}

class "ARS-66" << (S,lightblue) >> {
 Summary : DB Connection pooling
 Assigned to : PAOLO BRUNASTI
 Status : Done
 Type : Subtask
Total  Points : 0
}

class "ARS-70" << (S,lightblue) >> {
 Summary : Connection with Contentful
 Status : To Do
 Type : Subtask
Total  Points : 0
}

class "ARS-5" << (S,lightgreen) >> {
 Summary : Email with Results as a pdf
 Assigned to : PAOLO BRUNASTI
 Status : To Do
 Type : Story
 Points : 5.0
Total  Points : 5
}

class "ARS-71" << (S,lightblue) >> {
 Summary : Python server code generated from Swagger
 Assigned to : PAOLO BRUNASTI
 Status : Done
 Type : Subtask
Total  Points : 0
}

class "ARS-6" << (S,lightgreen) >> {
 Summary : CP Dashboard for results analysis
 Assigned to : Pablo Uhalte
 Status : To Do
 Type : Story
Total  Points : 0
}

class "ARS-72" << (S,lightgreen) >> {
 Summary : Implement Analytics API - results endpoints
 Status : To Do
 Type : Story
 Points : 5.0
Total  Points : 5
}

class "ARS-3" << (S,lightgreen) >> {
 Summary : Questions Page - Dimensions Progress Bar Component
 Assigned to : Juan Solano
 Status : To Do
 Type : Story
 Points : 8.0
Total  Points : 8
}

class "ARS-73" << (S,lightgreen) >> {
 Summary : Implement FE API - response endpoints
 Assigned to : Nneka Tielman
 Status : Done
 Type : Story
 Points : 5.0
Total  Points : 5
}

class "ARS-4" << (S,lightgreen) >> {
 Summary : Survey Results Page
 Status : To Do
 Type : Story
Total  Points : 0
}

class "ARS-9" << (S,lightgreen) >> {
 Summary : Results Page - Personalised High-Level Roadmap Component with AI
 Status : To Do
 Type : Story
Total  Points : 0
}

class "ARS-7" << (S,lightgreen) >> {
 Summary : CP AI-Powered Personalised Roadmap Component
 Assigned to : Pablo Uhalte
 Status : To Do
 Type : Story
Total  Points : 0
}

class "ARS-8" << (S,lightgreen) >> {
 Summary : Results Page - Scoring Graphic Component
 Status : To Do
 Type : Story
Total  Points : 0
}

class "ARS-78" << (S,lightgreen) >> {
 Summary : Create Image Component for Landing Page
 Assigned to : Juan Solano
 Status : Done
 Type : Story
 Points : 3.0
Total  Points : 3
}

class "ARS-79" << (E,green) >> {
 Summary : Final Report
 Status : To Do
 Type : Epic
Total  Points : 0
}

class "ARS-74" << (S,lightgreen) >> {
 Summary : Implement FE API - submit survey endpoint
 Status : To Do
 Type : Story
 Points : 8.0
Total  Points : 8
}

class "ARS-1" << (E,green) >> {
 Summary : Survey Landing Page
 Assigned to : Juan Solano
 Status : To Do
 Type : Epic
Total  Points : 11
}

class "ARS-75" << (S,lightgreen) >> {
 Summary : Generate pdf with spider graph
 Assigned to : Pablo Uhalte
 Status : In Progress
 Type : Story
 Points : 8.0
Total  Points : 8
}

class "ARS-2" << (E,green) >> {
 Summary : Survey Questions Pages
 Status : To Do
 Type : Epic
Total  Points : 28
}

class "ARS-76" << (S,lightgreen) >> {
 Summary : Set up Contentful to DB webhook
 Assigned to : Nneka Tielman
 Status : In Progress
 Type : Story
 Points : 13.0
Total  Points : 13
}

class "ARS-77" << (S,lightgreen) >> {
 Summary : Add Font to the Tailwind Config
 Assigned to : Juan Solano
 Status : Done
 Type : Story
 Points : 2.0
Total  Points : 2
}

class "ARS-103" << (S,lightblue) >> {
 Summary : Connect EC2 to S3
 Status : To Do
 Type : Subtask
Total  Points : 0
}

class "ARS-102" << (S,lightblue) >> {
 Summary : Create S3
 Status : Done
 Type : Subtask
Total  Points : 0
}

class "ARS-105" << (E,green) >> {
 Summary : Survey Results Page
 Status : To Do
 Type : Epic
Total  Points : 0
}

class "ARS-104" << (S,lightblue) >> {
 Summary : Connect to EC2 from Internet
 Status : Done
 Type : Subtask
Total  Points : 0
}

class "ARS-107" << (S,lightgreen) >> {
 Summary : Error Page
 Status : To Do
 Type : Story
Total  Points : 0
}

class "ARS-106" << (B,red) >> {
 Summary : Correct attributes name in tables to match table name
 Assigned to : PAOLO BRUNASTI
 Status : Done
 Type : Bug
 Points : 2.0
Total  Points : 2
}

class "ARS-109" << (S,lightblue) >> {
 Summary : Create simple API to test infra
 Status : Done
 Type : Subtask
Total  Points : 0
}

class "ARS-108" << (S,lightblue) >> {
 Summary : Python dependencies
 Status : Done
 Type : Subtask
Total  Points : 0
}

class "ARS-101" << (S,lightblue) >> {
 Summary : Automate deployment of BE app on EC2
 Status : To Do
 Type : Subtask
Total  Points : 0
}

class "ARS-100" << (S,lightblue) >> {
 Summary : Open BE app to FE
 Status : In Progress
 Type : Subtask
Total  Points : 0
}

class "ARS-81" << (S,lightgreen) >> {
 Summary : Define the algorithm to compute the results
 Status : Done
 Type : Story
Total  Points : 0
}

class "ARS-82" << (S,lightgreen) >> {
 Summary : Implement the result algorithm
 Status : To Do
 Type : Story
Total  Points : 0
}

class "ARS-83" << (S,lightgreen) >> {
 Summary : Mechanism to replace the tags in the texts
 Status : To Do
 Type : Story
Total  Points : 0
}

class "ARS-84" << (S,lightgreen) >> {
 Summary : Create test data in the DB
 Assigned to : PAOLO BRUNASTI
 Status : Done
 Type : Story
 Points : 2.0
Total  Points : 2
}

class "ARS-80" << (S,lightgreen) >> {
 Summary : Store the different Dimension Responses for the result in the DB
 Status : To Do
 Type : Story
Total  Points : 0
}

class "ARS-89" << (S,lightblue) >> {
 Summary : Spider Net Graphic
 Assigned to : PAOLO BRUNASTI
 Status : Done
 Type : Subtask
Total  Points : 0
}

class "ARS-85" << (S,lightgreen) >> {
 Summary : Security and Configuration : place connection values in a .env file for more security
 Assigned to : PAOLO BRUNASTI
 Status : To Do
 Type : Story
 Points : 3.0
Total  Points : 3
}

class "ARS-86" << (S,lightblue) >> {
 Summary : Create base data (Language, ..)
 Assigned to : PAOLO BRUNASTI
 Status : Done
 Type : Subtask
Total  Points : 0
}

class "ARS-87" << (S,lightgreen) >> {
 Summary : Cleanup VW Tailwind classes
 Status : To Do
 Type : Story
Total  Points : 0
}

class "ARS-88" << (S,lightgreen) >> {
 Summary : Extends BE architecture
 Assigned to : PAOLO BRUNASTI
 Status : In Progress
 Type : Story
 Points : 5.0
Total  Points : 5
}



' Parents =======
"ARS-40" <|-- "ARS-114"
"ARS-40" <|-- "ARS-113"
"ARS-20" <|-- "ARS-115"
"ARS-20" <|-- "ARS-118"
"ARS-20" <|-- "ARS-117"
"ARS-32" <|-- "ARS-18"
"ARS-20" <|-- "ARS-119"
"ARS-111" <|-- "ARS-112"
"ARS-1" <|-- "ARS-92"
"ARS-2" <|-- "ARS-93"
"ARS-2" <|-- "ARS-94"
"ARS-2" <|-- "ARS-95"
"ARS-88" <|-- "ARS-90"
"ARS-2" <|-- "ARS-91"
"ARS-5" <|-- "ARS-12"
"ARS-5" <|-- "ARS-13"
"ARS-40" <|-- "ARS-96"
"ARS-40" <|-- "ARS-97"
"ARS-40" <|-- "ARS-98"
"ARS-32" <|-- "ARS-10"
"ARS-40" <|-- "ARS-99"
"ARS-5" <|-- "ARS-11"
"ARS-32" <|-- "ARS-27"
"ARS-27" <|-- "ARS-28"
"ARS-27" <|-- "ARS-29"
"ARS-20" <|-- "ARS-23"
"ARS-20" <|-- "ARS-24"
"ARS-20" <|-- "ARS-25"
"ARS-20" <|-- "ARS-26"
"ARS-18" <|-- "ARS-21"
"ARS-20" <|-- "ARS-22"
"ARS-5" <|-- "ARS-39"
"ARS-1" <|-- "ARS-36"
"ARS-18" <|-- "ARS-30"
"ARS-2" <|-- "ARS-33"
"ARS-32" <|-- "ARS-40"
"ARS-32" <|-- "ARS-45"
"ARS-20" <|-- "ARS-47"
"ARS-2" <|-- "ARS-48"
"ARS-2" <|-- "ARS-41"
"ARS-105" <|-- "ARS-42"
"ARS-20" <|-- "ARS-43"
"ARS-23" <|-- "ARS-50"
"ARS-1" <|-- "ARS-56"
"ARS-6" <|-- "ARS-59"
"ARS-32" <|-- "ARS-52"
"ARS-6" <|-- "ARS-60"
"ARS-6" <|-- "ARS-61"
"ARS-20" <|-- "ARS-67"
"ARS-88" <|-- "ARS-68"
"ARS-52" <|-- "ARS-69"
"ARS-20" <|-- "ARS-63"
"ARS-20" <|-- "ARS-64"
"ARS-52" <|-- "ARS-65"
"ARS-52" <|-- "ARS-66"
"ARS-88" <|-- "ARS-70"
"ARS-20" <|-- "ARS-5"
"ARS-52" <|-- "ARS-71"
"ARS-20" <|-- "ARS-72"
"ARS-2" <|-- "ARS-3"
"ARS-20" <|-- "ARS-73"
"ARS-105" <|-- "ARS-4"
"ARS-105" <|-- "ARS-9"
"ARS-105" <|-- "ARS-8"
"ARS-20" <|-- "ARS-74"
"ARS-20" <|-- "ARS-75"
"ARS-20" <|-- "ARS-76"
"ARS-40" <|-- "ARS-103"
"ARS-40" <|-- "ARS-102"
"ARS-40" <|-- "ARS-104"
"ARS-20" <|-- "ARS-106"
"ARS-40" <|-- "ARS-109"
"ARS-88" <|-- "ARS-108"
"ARS-40" <|-- "ARS-101"
"ARS-40" <|-- "ARS-100"
"ARS-79" <|-- "ARS-81"
"ARS-79" <|-- "ARS-82"
"ARS-79" <|-- "ARS-83"
"ARS-20" <|-- "ARS-84"
"ARS-79" <|-- "ARS-80"
"ARS-88" <|-- "ARS-89"
"ARS-20" <|-- "ARS-85"
"ARS-52" <|-- "ARS-86"
"ARS-32" <|-- "ARS-88"


' Links =======
"ARS-18" <.. "ARS-37" : Polaris issue link

"ARS-18" <.. "ARS-38" : Polaris issue link

"ARS-91" <.. "ARS-2" : Issue split

"ARS-27" <.. "ARS-18" : Blocks

"ARS-27" <.. "ARS-40" : Blocks

"ARS-28" <.. "ARS-38" : Cloners

"ARS-26" <.. "ARS-25" : Blocks

"ARS-22" <.. "ARS-52" : Cloners

"ARS-36" <.. "ARS-1" : Issue split

"ARS-33" <.. "ARS-2" : Issue split

"ARS-47" <.. "ARS-23" : Relates

"ARS-42" <.. "ARS-4" : Polaris datapoint issue link

"ARS-56" <.. "ARS-1" : Issue split

"ARS-52" <.. "ARS-88" : Cloners

"ARS-67" <.. "ARS-26" : Issue split

"ARS-63" <.. "ARS-26" : Issue split

"ARS-64" <.. "ARS-72" : Blocks

"ARS-64" <.. "ARS-63" : Blocks

"ARS-64" <.. "ARS-26" : Issue split

"ARS-5" <.. "ARS-74" : Issue split

"ARS-72" <.. "ARS-26" : Issue split

"ARS-3" <.. "ARS-2" : Issue split

"ARS-73" <.. "ARS-26" : Issue split

"ARS-9" <.. "ARS-4" : Issue split

"ARS-8" <.. "ARS-4" : Issue split

"ARS-74" <.. "ARS-26" : Issue split

"ARS-74" <.. "ARS-43" : Relates

"ARS-1" <.. "ARS-14" : Polaris issue link

"ARS-1" <.. "ARS-15" : Polaris issue link

"ARS-1" <.. "ARS-16" : Polaris issue link

"ARS-1" <.. "ARS-17" : Polaris issue link

"ARS-75" <.. "ARS-74" : Issue split

"ARS-2" <.. "ARS-48" : Polaris datapoint issue link

"ARS-2" <.. "ARS-41" : Polaris datapoint issue link

"ARS-76" <.. "ARS-26" : Relates

"ARS-76" <.. "ARS-52" : Relates

"ARS-76" <.. "ARS-88" : Relates

"ARS-88" <.. "ARS-52" : Blocks



@enduml
