@startuml
'https://plantuml.com/class-diagram

' GENERATE CLASS DIAGRAM ===========
' Generated at    : Wed May 29 11:49:43 CEST 2024

title Jira Tickets for Epic Back End for Survey
hide empty members

legend
Jira Ticket Status
----
To Do : 14
Done : 11
In Progress : 3
TECH REVIEW (pls tag reviewer) : 1
----
Jira Ticket Types
----
Subtask : 5
Epic : 1
Bug : 4
Story : 19
end legend


' Tickets =======
class "ARS-115" << (B,red) >> {
 Summary : Correct the URL of /Admin/post_admin
 Assigned to : PAOLO BRUNASTI
 Status : TECH REVIEW (pls tag reviewer)
 Type : Bug
 Points : 1.0
Total  Points : 1
}

class "ARS-118" << (B,red) >> {
 Summary : Avoid duplication of users in POST /users execution
 Status : To Do
 Type : Bug
 Points : 3.0
Total  Points : 3
}

class "ARS-117" << (S,lightgreen) >> {
 Summary : Add execution time computing to all endpoints
 Status : To Do
 Type : Story
 Points : 3.0
Total  Points : 3
}

class "ARS-39" << (S,lightblue) >> {
 Summary : Investigate HubSpot integration
 Assigned to : PAOLO BRUNASTI
 Status : To Do
 Type : Subtask
Total  Points : 0
}

class "ARS-119" << (B,red) >> {
 Summary : Add endpoints to get the "tables" values
 Status : To Do
 Type : Bug
 Points : 3.0
Total  Points : 3
}

class "ARS-5" << (S,lightgreen) >> {
 Summary : Email with Results as a pdf
 Assigned to : PAOLO BRUNASTI
 Status : To Do
 Type : Story
 Points : 5.0
Total  Points : 5
}

class "ARS-72" << (S,lightgreen) >> {
 Summary : Implement Analytics API - results endpoints
 Status : To Do
 Type : Story
 Points : 5.0
Total  Points : 5
}

class "ARS-50" << (S,lightblue) >> {
 Summary : Update User structure with info from Figma
 Assigned to : PAOLO BRUNASTI
 Status : Done
 Type : Subtask
Total  Points : 0
}

class "ARS-73" << (S,lightgreen) >> {
 Summary : Implement FE API - response endpoints
 Assigned to : Nneka Tielman
 Status : Done
 Type : Story
 Points : 5.0
Total  Points : 5
}

class "ARS-12" << (S,lightblue) >> {
 Summary : Send email to customer with the PDF as attachment
 Assigned to : PAOLO BRUNASTI
 Status : To Do
 Type : Subtask
Total  Points : 0
}

class "ARS-13" << (S,lightblue) >> {
 Summary : Activation of the process of generating and sending the email
 Assigned to : PAOLO BRUNASTI
 Status : To Do
 Type : Subtask
Total  Points : 0
}

class "ARS-74" << (S,lightgreen) >> {
 Summary : Implement FE API - submit survey endpoint
 Status : To Do
 Type : Story
 Points : 8.0
Total  Points : 8
}

class "ARS-75" << (S,lightgreen) >> {
 Summary : Generate pdf with spider graph
 Assigned to : Pablo Uhalte
 Status : In Progress
 Type : Story
 Points : 8.0
Total  Points : 8
}

class "ARS-76" << (S,lightgreen) >> {
 Summary : Set up Contentful to DB webhook
 Assigned to : Nneka Tielman
 Status : In Progress
 Type : Story
 Points : 13.0
Total  Points : 13
}

class "ARS-11" << (S,lightblue) >> {
 Summary : Generate the PDF with the report for a single survey response
 Assigned to : PAOLO BRUNASTI
 Status : To Do
 Type : Subtask
Total  Points : 0
}

class "ARS-106" << (B,red) >> {
 Summary : Correct attributes name in tables to match table name
 Assigned to : PAOLO BRUNASTI
 Status : Done
 Type : Bug
 Points : 2.0
Total  Points : 2
}

class "ARS-84" << (S,lightgreen) >> {
 Summary : Create test data in the DB
 Assigned to : PAOLO BRUNASTI
 Status : Done
 Type : Story
 Points : 2.0
Total  Points : 2
}

class "ARS-23" << (S,lightgreen) >> {
 Summary : Model BE DB
 Assigned to : PAOLO BRUNASTI
 Status : Done
 Type : Story
 Points : 5.0
Total  Points : 5
}

class "ARS-67" << (S,lightgreen) >> {
 Summary : Implement FE API - user endpoints
 Assigned to : Nneka Tielman
 Status : Done
 Type : Story
 Points : 3.0
Total  Points : 3
}

class "ARS-24" << (S,lightgreen) >> {
 Summary : DB Connection from Python
 Assigned to : PAOLO BRUNASTI
 Status : Done
 Type : Story
 Points : 3.0
Total  Points : 3
}

class "ARS-25" << (S,lightgreen) >> {
 Summary : Design APIs
 Assigned to : Nneka Tielman
 Status : Done
 Type : Story
 Points : 5.0
Total  Points : 5
}

class "ARS-47" << (S,lightgreen) >> {
 Summary : Create View for results of the survey
 Assigned to : PAOLO BRUNASTI
 Status : Done
 Type : Story
 Points : 1.0
Total  Points : 1
}

class "ARS-26" << (S,lightgreen) >> {
 Summary : Implement APIs
 Assigned to : Nneka Tielman
 Status : Done
 Type : Story
Total  Points : 0
}

class "ARS-63" << (S,lightgreen) >> {
 Summary : Implement Analytics API - user endpoints
 Status : To Do
 Type : Story
 Points : 3.0
Total  Points : 3
}

class "ARS-85" << (S,lightgreen) >> {
 Summary : Security and Configuration : place connection values in a .env file for more security
 Assigned to : PAOLO BRUNASTI
 Status : To Do
 Type : Story
 Points : 3.0
Total  Points : 3
}

class "ARS-20" << (E,green) >> {
 Summary : Back End for Survey
 Assigned to : PAOLO BRUNASTI
 Status : In Progress
 Type : Epic
Total  Points : 94
}

class "ARS-64" << (S,lightgreen) >> {
 Summary : Auth for Analytics API
 Status : To Do
 Type : Story
Total  Points : 0
}

class "ARS-43" << (S,lightgreen) >> {
 Summary : Survey Hubspot integration
 Assigned to : PAOLO BRUNASTI
 Status : To Do
 Type : Story
 Points : 8.0
Total  Points : 8
}

class "ARS-22" << (S,lightgreen) >> {
 Summary : Define BE architecture
 Assigned to : PAOLO BRUNASTI
 Status : Done
 Type : Story
 Points : 5.0
Total  Points : 5
}



' Links =======

' Parents =======
"ARS-20" <|-- "ARS-115"
"ARS-20" <|-- "ARS-118"
"ARS-20" <|-- "ARS-117"
"ARS-5" <|-- "ARS-39"
"ARS-20" <|-- "ARS-119"
"ARS-20" <|-- "ARS-5"
"ARS-20" <|-- "ARS-72"
"ARS-23" <|-- "ARS-50"
"ARS-20" <|-- "ARS-73"
"ARS-5" <|-- "ARS-12"
"ARS-5" <|-- "ARS-13"
"ARS-20" <|-- "ARS-74"
"ARS-20" <|-- "ARS-75"
"ARS-20" <|-- "ARS-76"
"ARS-5" <|-- "ARS-11"
"ARS-20" <|-- "ARS-106"
"ARS-20" <|-- "ARS-84"
"ARS-20" <|-- "ARS-23"
"ARS-20" <|-- "ARS-67"
"ARS-20" <|-- "ARS-24"
"ARS-20" <|-- "ARS-25"
"ARS-20" <|-- "ARS-47"
"ARS-20" <|-- "ARS-26"
"ARS-20" <|-- "ARS-63"
"ARS-20" <|-- "ARS-85"
"ARS-20" <|-- "ARS-64"
"ARS-20" <|-- "ARS-43"
"ARS-20" <|-- "ARS-22"

"ARS-5" <.. "ARS-74" : Issue split

"ARS-72" <.. "ARS-26" : Issue split

"ARS-73" <.. "ARS-26" : Issue split

"ARS-74" <.. "ARS-26" : Issue split

"ARS-74" <.. "ARS-43" : Relates

"ARS-75" <.. "ARS-74" : Issue split

"ARS-76" <.. "ARS-26" : Relates

"ARS-76" <.. "ARS-52" : Relates

"ARS-76" <.. "ARS-88" : Relates

"ARS-67" <.. "ARS-26" : Issue split

"ARS-47" <.. "ARS-23" : Relates

"ARS-26" <.. "ARS-25" : Blocks

"ARS-63" <.. "ARS-26" : Issue split

"ARS-64" <.. "ARS-72" : Blocks

"ARS-64" <.. "ARS-63" : Blocks

"ARS-64" <.. "ARS-26" : Issue split

"ARS-22" <.. "ARS-52" : Cloners



@enduml
