@startuml
'https://plantuml.com/class-diagram

' GENERATE CLASS DIAGRAM ===========
' Generated at    : Wed May 29 11:49:43 CEST 2024

title Jira Tickets for Epic Survey Results Page
hide empty members

legend
Jira Ticket Status
----
To Do : 5
----
Jira Ticket Types
----
Epic : 1
Story : 4
end legend


' Tickets =======
class "ARS-105" << (E,green) >> {
 Summary : Survey Results Page
 Status : To Do
 Type : Epic
Total  Points : 0
}

class "ARS-4" << (S,lightgreen) >> {
 Summary : Survey Results Page
 Status : To Do
 Type : Story
Total  Points : 0
}

class "ARS-9" << (S,lightgreen) >> {
 Summary : Results Page - Personalised High-Level Roadmap Component with AI
 Status : To Do
 Type : Story
Total  Points : 0
}

class "ARS-8" << (S,lightgreen) >> {
 Summary : Results Page - Scoring Graphic Component
 Status : To Do
 Type : Story
Total  Points : 0
}

class "ARS-42" << (S,lightgreen) >> {
 Summary : Results Page - Personalised Thank you message
 Status : To Do
 Type : Story
Total  Points : 0
}



' Links =======

' Parents =======
"ARS-105" <|-- "ARS-4"
"ARS-105" <|-- "ARS-9"
"ARS-105" <|-- "ARS-8"
"ARS-105" <|-- "ARS-42"

"ARS-9" <.. "ARS-4" : Issue split

"ARS-8" <.. "ARS-4" : Issue split

"ARS-42" <.. "ARS-4" : Polaris datapoint issue link



@enduml
