@startuml
'https://plantuml.com/class-diagram

' GENERATE CLASS DIAGRAM ===========
' Generated at    : Fri May 03 10:09:59 CEST 2024

title Jira Tickets for Person Scott Nimmo
hide empty members

legend
Jira Ticket Status
----
(To Do) : 1
(Done) : 1
(In Progress) : 1
----
Jira Ticket Types
----
(Task) : 1
(Work Request) : 1
(Sub-task) : 1
end legend


' Tickets =======
class "CNG-944" << (W,lightblue) >> {
  Assigned to : Scott Nimmo
  Summary : Need Schema details for On-Prem DB 
  Status : To Do
  Type : Work Request
}

class "CNG-961" << (S,lightblue) >> {
  Assigned to : Anand Jajoo
  Summary : Commercial Analysis - POC
  Status : In Progress
  Type : Sub-task
}

class "CNG-951" << (T,lightblue) >> {
  Assigned to : Anand Jajoo
  Summary : Dynamic data insertion in DB irrespective of table rows and column
  Status : Done
  Type : Task
}



' Links =======
"CNG-944" <.. "CNG-961" : Dependent
"CNG-944" <.. "CNG-951" : Dependent


@enduml
