@startuml
'https://plantuml.com/class-diagram

' GENERATE CLASS DIAGRAM ===========
' Generated at    : Fri May 03 10:09:58 CEST 2024

title Jira Tickets for Link Type Approval
hide empty members

legend
Jira Ticket Status
----
(To Do) : 10
(Done) : 6
(In Progress) : 7
(In System Test) : 1
(Withdrawn) : 1
(Work Complete) : 8
----
Jira Ticket Types
----
(Task) : 19
(Bug) : 10
(Sub-task) : 4
end legend


' Tickets =======
class "CNG-1060" << (T,lightblue) >> {
  Assigned to : Rukaya Ogazi-Khan
  Summary : CNG-Commercial Analysis -POC Dependency
  Status : To Do
  Type : Task
}

class "CNG-879" << (B,red) >> {
  Assigned to : Amreen Fathima
  Summary : SIT SOLR  NOT(!) -Getting null response when we add NOT(!) to HotelID
  Status : Work Complete
  Type : Bug
}

class "CNG-615" << (T,lightblue) >> {
  Assigned to : Shafiqul Islam
  Summary : (3844) AHP Support Scope
  Status : To Do
  Type : Task
}

class "CNG-738" << (T,lightblue) >> {
  Summary : Token Authorizer - Full API 
  Status : Done
  Type : Task
}

class "CNG-917" << (T,lightblue) >> {
  Assigned to : Shafiqul Islam
  Summary : Define approach and process for version upgrades across the e2e CNG environments post go live
  Status : To Do
  Type : Task
}

class "CNG-431" << (B,red) >> {
  Summary : Some FH Package Search parameters are not as per live 
  Status : Work Complete
  Type : Bug
}

class "CNG-871" << (T,lightblue) >> {
  Assigned to : Shafiqul Islam
  Summary : Confirm Support SLA's for all CNG components
  Status : To Do
  Type : Task
}

class "CNG-1202" << (T,lightblue) >> {
  Assigned to : Sivagami S
  Summary : Test the connectivity for OS endpoint from stack04
  Status : To Do
  Type : Task
}

class "CNG-796" << (B,red) >> {
  Assigned to : Amreen Fathima
  Summary : SIT-Different Data types Observed in SIT KIBANA and e2e Data Mapping
  Status : Work Complete
  Type : Bug
}

class "CNG-432" << (B,red) >> {
  Assigned to : Tony Cassidy
  Summary : Some FC Package Search parameters are not as per live
  Status : Work Complete
  Type : Bug
}

class "CNG-1201" << (T,lightblue) >> {
  Assigned to : Rukaya Ogazi-Khan
  Summary : Create GitHub Workflows for app repo
  Status : In Progress
  Type : Task
}

class "CNG-753" << (S,lightblue) >> {
  Summary : Authentication and Authorization - Token Authorizer
  Status : Done
  Type : Sub-task
}

class "CNG-558" << (S,lightblue) >> {
  Summary : Solr API - SIT
  Status : To Do
  Type : Sub-task
}

class "CNG-1022" << (T,lightblue) >> {
  Assigned to : Anand Jajoo
  Summary : Token Authorizer - Build - OAuth Introsospect url to validate tokens 
  Status : To Do
  Type : Task
}

class "CNG-733" << (T,lightblue) >> {
  Assigned to : Shafiqul Islam
  Summary : AWS Infrastructure
  Status : In Progress
  Type : Task
}

class "CNG-1023" << (T,lightblue) >> {
  Assigned to : Riti Agarwal
  Summary : CNG-Ways of Working-Increment Zero- Agree and align on ways of working for CNG project
  Status : In Progress
  Type : Task
}

class "CNG-876" << (B,red) >> {
  Assigned to : Amreen Fathima
  Summary : SIT SOLR  NOT(!) - Getting default Null response for a ! query though values are present in the Cache for FC Proposition
  Status : Work Complete
  Type : Bug
}

class "CNG-810" << (S,lightblue) >> {
  Summary : Token Authorizer - Full API Build 
  Status : Done
  Type : Sub-task
}

class "CNG-1188" << (T,lightblue) >> {
  Assigned to : Rukaya Ogazi-Khan
  Summary : Create Ingestion pipeline in ECP account
  Status : Done
  Type : Task
}

class "CNG-1196" << (T,lightblue) >> {
  Assigned to : Rukaya Ogazi-Khan
  Summary : Modify pipeline config to add routing based on proposition
  Status : In Progress
  Type : Task
}

class "CNG-1131" << (T,lightblue) >> {
  Assigned to : BharathKum Sarangarajan
  Summary : Code review, revision & build activities 
  Status : Done
  Type : Task
}

class "CNG-1195" << (T,lightblue) >> {
  Assigned to : Rukaya Ogazi-Khan
  Summary : Docker image creation for CNG App
  Status : In Progress
  Type : Task
}

class "CNG-470" << (B,red) >> {
  Assigned to : Jon Funnell
  Summary : FH - departureAirport and departureTime  fields not populated in Kibana
  Status : Work Complete
  Type : Bug
}

class "CNG-626" << (T,lightblue) >> {
  Assigned to : Shafiqul Islam
  Summary : DP Transition to BAU Requirements 
  Status : To Do
  Type : Task
}

class "CNG-647" << (T,lightblue) >> {
  Assigned to : Shafiqul Islam
  Summary : Document all error logging and monitoring processes in place for e2e CNG process for Support teams to refer to
  Status : Done
  Type : Task
}

class "CNG-867" << (B,red) >> {
  Assigned to : Amreen Fathima
  Summary : SIT- Hotel Stars is returning Null response
  Status : Work Complete
  Type : Bug
}

class "CNG-708" << (B,red) >> {
  Assigned to : Amreen Fathima
  Summary : CNG - SOLR API - NOT(!) Logic
  Status : In System Test
  Type : Bug
}

class "CNG-486" << (B,red) >> {
  Assigned to : Tony Cassidy
  Summary : FC - departureAirport and departureTime fields not populated as expected in Kibana
  Status : Work Complete
  Type : Bug
}

class "CNG-961" << (S,lightblue) >> {
  Assigned to : Anand Jajoo
  Summary : Commercial Analysis - POC
  Status : In Progress
  Type : Sub-task
}

class "CNG-624" << (T,lightblue) >> {
  Assigned to : Anand Dixit
  Summary : CNG - Full API - Consumers Document
  Status : To Do
  Type : Task
}

class "CNG-866" << (B,red) >> {
  Assigned to : Amreen Fathima
  Summary : SIT-PricePP is not returning values properly
  Status : Withdrawn
  Type : Bug
}

class "CNG-1198" << (T,lightblue) >> {
  Assigned to : Rukaya Ogazi-Khan
  Summary : Provision multiple environments in ECP dev account
  Status : In Progress
  Type : Task
}

class "CNG-1199" << (T,lightblue) >> {
  Assigned to : BharathKum Sarangarajan
  Summary : Deploy and test the springboot application in fargate
  Status : To Do
  Type : Task
}



' Links =======
"CNG-1202" <.. "CNG-733" : Approval
"CNG-1201" <.. "CNG-733" : Approval
"CNG-753" <.. "CNG-738" : Approval
"CNG-796" <.. "CNG-558" : Approval
"CNG-961" <.. "CNG-1060" : Approval
"CNG-1023" <.. "CNG-1131" : Approval
"CNG-879" <.. "CNG-708" : Approval
"CNG-876" <.. "CNG-708" : Approval
"CNG-470" <.. "CNG-486" : Approval
"CNG-431" <.. "CNG-432" : Approval
"CNG-810" <.. "CNG-1022" : Approval
"CNG-626" <.. "CNG-615" : Approval
"CNG-626" <.. "CNG-624" : Approval
"CNG-626" <.. "CNG-647" : Approval
"CNG-626" <.. "CNG-871" : Approval
"CNG-626" <.. "CNG-917" : Approval
"CNG-867" <.. "CNG-558" : Approval
"CNG-866" <.. "CNG-558" : Approval
"CNG-1188" <.. "CNG-733" : Approval
"CNG-1196" <.. "CNG-733" : Approval
"CNG-1195" <.. "CNG-733" : Approval
"CNG-1198" <.. "CNG-733" : Approval
"CNG-1199" <.. "CNG-733" : Approval


@enduml
