@startuml
'https://plantuml.com/class-diagram

' GENERATE CLASS DIAGRAM ===========
' Generated at    : Fri May 03 10:09:58 CEST 2024

title Jira Tickets for Link Type Gantt End to Start
hide empty members

legend
Jira Ticket Status
----
(To Do) : 2
(In Progress) : 1
----
Jira Ticket Types
----
(Sub-task) : 3
end legend


' Tickets =======
class "CNG-559" << (S,lightblue) >> {
  Assigned to : Sulafa Malik
  Summary : Solr API - UAT
  Status : To Do
  Type : Sub-task
}

class "CNG-814" << (S,lightblue) >> {
  Summary : Solr API - Environment Set Up & Configuration 
  Status : In Progress
  Type : Sub-task
}

class "CNG-558" << (S,lightblue) >> {
  Summary : Solr API - SIT
  Status : To Do
  Type : Sub-task
}



' Links =======
"CNG-559" <.. "CNG-558" : Gantt End to Start
"CNG-559" <.. "CNG-814" : Gantt End to Start


@enduml
