@startuml
'https://plantuml.com/class-diagram

' GENERATE CLASS DIAGRAM ===========
' Generated at    : Fri May 03 10:09:59 CEST 2024

title Jira Tickets for Person Abinaya Arumugasamy
hide empty members

legend
Jira Ticket Status
----
(Done) : 16
(To Do) : 3
(Dev Review) : 1
(In Progress) : 1
(Work Complete) : 3
----
Jira Ticket Types
----
(Task) : 11
(Bug) : 3
(Sub-task) : 10
end legend


' Tickets =======
class "CNG-561" << (T,lightblue) >> {
  Assigned to : Abinaya Arumugasamy
  Summary : SOLAR API Data Mapping - SIT
  Status : Done
  Type : Task
}

class "CNG-583" << (S,lightblue) >> {
  Assigned to : Merin Joseph
  Summary : SIP B/W Compatible API Design
  Status : Done
  Type : Sub-task
}

class "CNG-758" << (T,lightblue) >> {
  Summary : Housekeeping Service 
  Status : Done
  Type : Task
}

class "CNG-824" << (T,lightblue) >> {
  Summary : CNG - SOLR API- Lambda - ST- XML Response Format 
  Status : In Progress
  Type : Task
}

class "CNG-936" << (B,red) >> {
  Assigned to : Abinaya Arumugasamy
  Summary : SIT SIP-  Special Characters are not being shown properly
  Status : Work Complete
  Type : Bug
}

class "CNG-639" << (T,lightblue) >> {
  Assigned to : Abinaya Arumugasamy
  Summary :  Error codes - Full API 
  Status : Done
  Type : Task
}

class "CNG-726" << (S,lightblue) >> {
  Assigned to : Abinaya Arumugasamy
  Summary : CNG - Housekeeping - Impacted Component - Elastic Search, Layers, Lambda, Scripts, Event Bridge, Infrastructure/Connectivity/Version-1 Tasks -House Keeping Build  - AWS
  Status : To Do
  Type : Sub-task
}

class "CNG-806" << (T,lightblue) >> {
  Assigned to : Abinaya Arumugasamy
  Summary : SOLR API XML Response Format - Build
  Status : Done
  Type : Task
}

class "CNG-728" << (S,lightblue) >> {
  Summary : CNG - Housekeeping - Impacted Component - Elastic Search, Layers, Lambda, Scripts, Event Bridge, Infrastructure/Connectivity/Version-1 Tasks - House Keeping Unit Testing - AWS
  Status : To Do
  Type : Sub-task
}

class "CNG-860" << (B,red) >> {
  Assigned to : Dhanish Kumar
  Summary : SIT-Getting Internal server error  for cabinupgrade & query handlers for wt=xml
  Status : Work Complete
  Type : Bug
}

class "CNG-585" << (S,lightblue) >> {
  Assigned to : Anand Dixit
  Summary : SIP B/W Compatible API SIT
  Status : Done
  Type : Sub-task
}

class "CNG-642" << (T,lightblue) >> {
  Assigned to : Abinaya Arumugasamy
  Summary : Request validation for all propositions- Full API 
  Status : Done
  Type : Task
}

class "CNG-542" << (T,lightblue) >> {
  Assigned to : Abinaya Arumugasamy
  Summary : Solr - XML & JSON Response Format Analysis & Requirements 
  Status : Done
  Type : Task
}

class "CNG-751" << (S,lightblue) >> {
  Assigned to : Abinaya Arumugasamy
  Summary : CNG - Housekeeping - Impacted Component - Lambda -Housekeeping-Lambda
  Status : Done
  Type : Sub-task
}

class "CNG-652" << (S,lightblue) >> {
  Assigned to : Abinaya Arumugasamy
  Summary : Analysis on changes required in sfield,pt and geofilt
  Status : Done
  Type : Sub-task
}

class "CNG-556" << (S,lightblue) >> {
  Assigned to : Shafiqul Islam
  Summary : Solr API - Analysis & Design
  Status : Dev Review
  Type : Sub-task
}

class "CNG-831" << (S,lightblue) >> {
  Assigned to : Abinaya Arumugasamy
  Summary : Solr API Build changes for ! functionality
  Status : Done
  Type : Sub-task
}

class "CNG-962" << (T,lightblue) >> {
  Assigned to : Abinaya Arumugasamy
  Summary : CNG - Full API- Impacted Component - LLD, Lambda - Full API design discussions around usage of q and fq parameters and how ELK queries supporting them should be built
  Status : Done
  Type : Task
}

class "CNG-599" << (T,lightblue) >> {
  Assigned to : Abinaya Arumugasamy
  Summary : Full API data mapping review with Jon 
  Status : Done
  Type : Task
}

class "CNG-855" << (B,red) >> {
  Assigned to : Amreen Fathima
  Summary : SIT- Specified Rows are not being shown properly
  Status : Work Complete
  Type : Bug
}

class "CNG-547" << (T,lightblue) >> {
  Assigned to : Abinaya Arumugasamy
  Summary : B/W compatible SIP UAT set up
  Status : Done
  Type : Task
}

class "CNG-558" << (S,lightblue) >> {
  Summary : Solr API - SIT
  Status : To Do
  Type : Sub-task
}

class "CNG-910" << (T,lightblue) >> {
  Assigned to : Abinaya Arumugasamy
  Summary : SIP - Environment Variables & Configuration Parameters
  Status : Done
  Type : Task
}

class "CNG-602" << (S,lightblue) >> {
  Assigned to : Abinaya Arumugasamy
  Summary : Solr live server analysis for sfield, pt and geofilt
  Status : Done
  Type : Sub-task
}



' Links =======
"CNG-542" <.. "CNG-556" : Dependent
"CNG-542" <.. "CNG-855" : Relates
"CNG-542" <.. "CNG-860" : Relates
"CNG-751" <.. "CNG-758" : Relates
"CNG-561" <.. "CNG-558" : Dependent
"CNG-936" <.. "CNG-585" : Relates
"CNG-910" <.. "CNG-583" : Dependent
"CNG-726" <.. "CNG-728" : Dependent
"CNG-806" <.. "CNG-542" : Blocks
"CNG-806" <.. "CNG-824" : Dependent


@enduml
