@startuml
'https://plantuml.com/class-diagram

' GENERATE CLASS DIAGRAM ===========
' Generated at    : Mon Apr 15 17:54:50 CEST 2024

hide empty members

legend
Jira Ticket Status
----
(To Do) : 2
(In Progress) : 3
----
Jira Ticket Types
----
(Task) : 4
(Sub-task) : 1
end legend


' Tickets =======
class "CNG-1294" << (T,lightblue) >> {
  Assigned to : Sivagami S
  Status : In Progress
  Type : Task
}

class "CNG-1205" << (T,lightblue) >> {
  Assigned to : Sivagami S
  Status : In Progress
  Type : Task
}

class "CNG-1202" << (T,lightblue) >> {
  Assigned to : Sivagami S
  Status : To Do
  Type : Task
}

class "CNG-685" << (S,lightblue) >> {
  Assigned to : Merin Joseph
  Status : To Do
  Type : Sub-task
}

class "CNG-733" << (T,lightblue) >> {
  Assigned to : Shafiqul Islam
  Status : In Progress
  Type : Task
}



' Links =======
"CNG-1205" <.. "CNG-685" : Relates
"CNG-1202" <.. "CNG-733" : Approval
"CNG-1294" <.. "CNG-1205" : Dependent


@enduml
