@startuml
'https://plantuml.com/class-diagram

' GENERATE CLASS DIAGRAM ===========
' Generated at    : Mon Apr 15 17:54:50 CEST 2024

hide empty members

legend
Jira Ticket Status
----
(In Review (migrated)) : 3
(To Do) : 4
(Under Investigation) : 1
(In Progress) : 3
(Design Review) : 1
----
Jira Ticket Types
----
(Task) : 3
(Bug) : 1
(Sub-task) : 7
(Story) : 1
end legend


' Tickets =======
class "CNG-491" << (T,lightblue) >> {
  Assigned to : Riti Agarwal
  Status : To Do
  Type : Task
}

class "CNG-1314" << (S,lightblue) >> {
  Assigned to : Riti Agarwal
  Status : To Do
  Type : Sub-task
}

class "CNG-1026" << (S,lightblue) >> {
  Assigned to : Riti Agarwal
  Status : In Review (migrated)
  Type : Sub-task
}

class "CNG-1027" << (S,lightblue) >> {
  Assigned to : Riti Agarwal
  Status : In Review (migrated)
  Type : Sub-task
}

class "CNG-687" << (S,lightblue) >> {
  Assigned to : Sulafa Malik
  Status : To Do
  Type : Sub-task
}

class "CNG-1025" << (S,lightblue) >> {
  Assigned to : Riti Agarwal
  Status : In Progress
  Type : Sub-task
}

class "CNG-73" << (S,lightgreen) >> {
  Assigned to : Sushant Khandelwal
  Status : Design Review
  Type : Story
}

class "CNG-723" << (T,lightblue) >> {
  Status : To Do
  Type : Task
}

class "CNG-1033" << (S,lightblue) >> {
  Assigned to : Riti Agarwal
  Status : In Progress
  Type : Sub-task
}

class "CNG-887" << (B,red) >> {
  Assigned to : Riti Agarwal
  Status : Under Investigation
  Type : Bug
}

class "CNG-1023" << (T,lightblue) >> {
  Assigned to : Riti Agarwal
  Status : In Progress
  Type : Task
}

class "CNG-1034" << (S,lightblue) >> {
  Assigned to : Riti Agarwal
  Status : In Review (migrated)
  Type : Sub-task
}



' Links =======
"CNG-887" <.. "CNG-687" : Relates
"CNG-491" <.. "CNG-73" : Relates
"CNG-491" <.. "CNG-723" : Relates


@enduml
