@startuml
'https://plantuml.com/class-diagram

' GENERATE CLASS DIAGRAM ===========
' Generated at    : Fri May 03 10:09:59 CEST 2024

title Jira Tickets for Status Design Review
hide empty members

legend
Jira Ticket Status
----
(To Do) : 1
(Done) : 1
(Dev Review) : 2
(Withdrawn) : 1
(In Progress) : 1
(Resolved (Closed)) : 1
(Design Review) : 6
----
Jira Ticket Types
----
(Task) : 6
(Bug) : 1
(Sub-task) : 5
(Impediment (Issue)) : 1
end legend


' Tickets =======
class "CNG-1273" << (T,lightblue) >> {
  Assigned to : Rukaya Ogazi-Khan
  Summary : Update Application User Persona 
  Status : Design Review
  Type : Task
}

class "CNG-1370" << (T,lightblue) >> {
  Assigned to : Deepak Ingwale
  Summary : Full API - Application Code Development - Iberia Deeplinks  
  Status : Design Review
  Type : Task
}

class "CNG-590" << (S,lightblue) >> {
  Assigned to : Shafiqul Islam
  Summary : BA Holidays Pricing Cache API (Full API) - Build
  Status : To Do
  Type : Sub-task
}

class "CNG-604" << (T,lightblue) >> {
  Assigned to : Anand Dixit
  Summary : Common API Design
  Status : Dev Review
  Type : Task
}

class "CNG-977" << (S,lightblue) >> {
  Assigned to : Paolo Brunasti
  Summary : Commercial Analysis - LLD - External Review
  Status : Design Review
  Type : Sub-task
}

class "CNG-537" << (B,red) >> {
  Assigned to : Shafiqul Islam
  Summary : API deployment pipeline - Issue with Version 1
  Status : Withdrawn
  Type : Bug
}

class "CNG-1107" << (T,lightblue) >> {
  Assigned to : Paolo Brunasti
  Summary : Solr API - External LLD review 
  Status : Design Review
  Type : Task
}

class "CNG-1028" << (S,lightblue) >> {
  Assigned to : BharathKum Sarangarajan
  Summary : LLD is done in word document and not confluence..we need to move this to confluence and segerate them properly. LLD does not have proper traecability to Requirement Jiras. First SOLR API will be picked and migrated to confluence
  Status : Done
  Type : Sub-task
}

class "CNG-1216" << (S,lightblue) >> {
  Assigned to : Paolo Brunasti
  Summary : Commercial Analysis - LLD - External Review
  Status : In Progress
  Type : Sub-task
}

class "CNG-620" << (T,lightblue) >> {
  Assigned to : Sushant Khandelwal
  Summary : Housekeeping comments
  Status : Design Review
  Type : Task
}

class "CNG-1005" << (T,lightblue) >> {
  Assigned to : Poornima Sajeendran
  Summary : CMT Pipeline for Staging Environments and Release Process
  Status : Design Review
  Type : Task
}

class "CNG-556" << (S,lightblue) >> {
  Assigned to : Shafiqul Islam
  Summary : Solr API - Analysis & Design
  Status : Dev Review
  Type : Sub-task
}

class "CNG-657" << (I,orange) >> {
  Assigned to : Shafiqul Islam
  Summary : CNG - Housekeeping - Impacted Component - On Premise Database, Infrastructure/Connectivity/Version-1 Tasks - housekeeping connectivity to on prem database to be fixed by Version 1 
  Status : Resolved (Closed)
  Type : Impediment (Issue)
}



' Links =======
"CNG-977" <.. "CNG-1216" : Cloners
"CNG-620" <.. "CNG-657" : Blocks
"CNG-620" <.. "CNG-537" : Blocks
"CNG-620" <.. "CNG-604" : Dependent
"CNG-1370" <.. "CNG-590" : Dependent
"CNG-1107" <.. "CNG-556" : Dependent
"CNG-1107" <.. "CNG-1028" : Relates


@enduml
