@startuml
'https://plantuml.com/class-diagram

' GENERATE CLASS DIAGRAM ===========
' Generated at    : Mon Apr 15 17:54:50 CEST 2024

hide empty members

legend
Jira Ticket Status
----
(To Do) : 2
(In Progress) : 1
----
Jira Ticket Types
----
(Sub-task) : 3
end legend


' Tickets =======
class "CNG-559" << (S,lightblue) >> {
  Assigned to : Sulafa Malik
  Status : To Do
  Type : Sub-task
}

class "CNG-814" << (S,lightblue) >> {
  Status : In Progress
  Type : Sub-task
}

class "CNG-558" << (S,lightblue) >> {
  Status : To Do
  Type : Sub-task
}



' Links =======
"CNG-559" <.. "CNG-558" : Gantt End to Start
"CNG-559" <.. "CNG-814" : Gantt End to Start


@enduml
