@startuml
'https://plantuml.com/class-diagram

' GENERATE CLASS DIAGRAM ===========
' Generated at    : Fri May 03 10:09:59 CEST 2024

title Jira Tickets for Person Hamida Rehman
hide empty members

legend
Jira Ticket Status
----
(In Review (migrated)) : 1
(Done) : 6
(Dev Review) : 1
----
Jira Ticket Types
----
(Task) : 5
(Sub-task) : 3
end legend


' Tickets =======
class "CNG-1030" << (S,lightblue) >> {
  Assigned to : Pratik Desai
  Summary : Internal Code Review for SOLR API first and capture review comments in Git Hub
  Status : In Review (migrated)
  Type : Sub-task
}

class "CNG-1028" << (S,lightblue) >> {
  Assigned to : BharathKum Sarangarajan
  Summary : LLD is done in word document and not confluence..we need to move this to confluence and segerate them properly. LLD does not have proper traecability to Requirement Jiras. First SOLR API will be picked and migrated to confluence
  Status : Done
  Type : Sub-task
}

class "CNG-1167" << (T,lightblue) >> {
  Assigned to : Hamida Rehman
  Summary : Interim code review 2
  Status : Done
  Type : Task
}

class "CNG-556" << (S,lightblue) >> {
  Assigned to : Shafiqul Islam
  Summary : Solr API - Analysis & Design
  Status : Dev Review
  Type : Sub-task
}

class "CNG-1168" << (T,lightblue) >> {
  Assigned to : Hamida Rehman
  Summary : Interim code review 3 
  Status : Done
  Type : Task
}

class "CNG-1165" << (T,lightblue) >> {
  Assigned to : Hamida Rehman
  Summary : Interim LLD review 2
  Status : Done
  Type : Task
}

class "CNG-1166" << (T,lightblue) >> {
  Assigned to : Hamida Rehman
  Summary : Interim LLD review 3
  Status : Done
  Type : Task
}

class "CNG-1144" << (T,lightblue) >> {
  Assigned to : Hamida Rehman
  Summary : Initial external LLD review
  Status : Done
  Type : Task
}



' Links =======
"CNG-1167" <.. "CNG-1030" : Relates
"CNG-1168" <.. "CNG-1030" : Relates
"CNG-1165" <.. "CNG-556" : Dependent
"CNG-1165" <.. "CNG-1028" : Relates
"CNG-1166" <.. "CNG-556" : Dependent
"CNG-1166" <.. "CNG-1028" : Relates
"CNG-1144" <.. "CNG-556" : Dependent
"CNG-1144" <.. "CNG-1028" : Relates


@enduml
