@startuml
'https://plantuml.com/class-diagram

' GENERATE CLASS DIAGRAM ===========
' Generated at    : Thu Apr 18 11:01:10 CEST 2024

title Jira Tickets for Link Type Issue split
hide empty members

legend
Jira Ticket Status
----
(To Do) : 3
(In Progress) : 1
----
Jira Ticket Types
----
(Task) : 3
(Story) : 1
end legend


' Tickets =======
class "CNG-1192" << (T,lightblue) >> {
  Assigned to : Jon Funnell
  Status : To Do
  Type : Task
}

class "CNG-1190" << (T,lightblue) >> {
  Assigned to : Shafiqul Islam
  Status : To Do
  Type : Task
}

class "CNG-385" << (T,lightblue) >> {
  Assigned to : Shafiqul Islam
  Status : To Do
  Type : Task
}

class "CNG-70" << (S,lightgreen) >> {
  Assigned to : Sushant Khandelwal
  Status : In Progress
  Type : Story
}



' Links =======
"CNG-1192" <.. "CNG-70" : Issue split
"CNG-1190" <.. "CNG-385" : Issue split


@enduml
