@startuml
'https://plantuml.com/class-diagram

' GENERATE CLASS DIAGRAM ===========
' Generated at    : Mon Apr 15 17:54:50 CEST 2024

hide empty members

legend
Jira Ticket Status
----
(IN UAT) : 7
(In Review (migrated)) : 1
(To Do) : 97
(Dev Review) : 9
(In Work) : 3
(Under Investigation) : 2
(UAT) : 18
(In Progress) : 51
(In System Test) : 5
(QA) : 10
(Build) : 2
(On Hold / Monitoring) : 2
(Design Review) : 4
----
Jira Ticket Types
----
(Risks) : 7
(Task) : 104
(Issue) : 2
(Work Request) : 1
(Bug) : 19
(Sub-task) : 35
(Story) : 42
(New Feature) : 1
end legend


' Tickets =======
class "CNG-50" << (S,lightgreen) >> {
  Assigned to : Sushant Khandelwal
  Status : In Progress
  Type : Story
}

class "CNG-51" << (S,lightgreen) >> {
  Assigned to : Sulafa Malik
  Status : UAT
  Type : Story
}

class "CNG-55" << (S,lightgreen) >> {
  Assigned to : Shafiqul Islam
  Status : To Do
  Type : Story
}

class "CNG-57" << (S,lightgreen) >> {
  Assigned to : Sulafa Malik
  Status : UAT
  Type : Story
}

class "CNG-1208" << (T,lightblue) >> {
  Assigned to : Shafiqul Islam
  Status : To Do
  Type : Task
}

class "CNG-1329" << (T,lightblue) >> {
  Assigned to : Shafiqul Islam
  Status : To Do
  Type : Task
}

class "CNG-893" << (T,lightblue) >> {
  Status : To Do
  Type : Task
}

class "CNG-651" << (T,lightblue) >> {
  Assigned to : Rukaya Ogazi-Khan
  Status : To Do
  Type : Task
}

class "CNG-1205" << (T,lightblue) >> {
  Assigned to : Sivagami S
  Status : In Progress
  Type : Task
}

class "CNG-773" << (T,lightblue) >> {
  Assigned to : Merin Joseph
  Status : In Progress
  Type : Task
}

class "CNG-655" << (N,lightgreen) >> {
  Status : To Do
  Type : New Feature
}

class "CNG-776" << (T,lightblue) >> {
  Assigned to : Rukaya Ogazi-Khan
  Status : To Do
  Type : Task
}

class "CNG-654" << (B,red) >> {
  Assigned to : Merin Joseph
  Status : In System Test
  Type : Bug
}

class "CNG-533" << (T,lightblue) >> {
  Assigned to : Anand Dixit
  Status : In Progress
  Type : Task
}

class "CNG-536" << (B,red) >> {
  Assigned to : Sulafa Malik
  Status : IN UAT
  Type : Bug
}

class "CNG-415" << (T,lightblue) >> {
  Assigned to : Shafiqul Islam
  Status : To Do
  Type : Task
}

class "CNG-777" << (B,red) >> {
  Assigned to : Sulafa Malik
  Status : IN UAT
  Type : Bug
}

class "CNG-66" << (S,lightgreen) >> {
  Assigned to : Sulafa Malik
  Status : UAT
  Type : Story
}

class "CNG-548" << (T,lightblue) >> {
  Assigned to : Sushant Khandelwal
  Status : In Progress
  Type : Task
}

class "CNG-68" << (S,lightgreen) >> {
  Assigned to : Anand Jajoo
  Status : To Do
  Type : Story
}

class "CNG-69" << (S,lightgreen) >> {
  Assigned to : Sulafa Malik
  Status : UAT
  Type : Story
}

class "CNG-2" << (S,lightgreen) >> {
  Assigned to : Merin Joseph
  Status : Build
  Type : Story
}

class "CNG-785" << (T,lightblue) >> {
  Assigned to : BharathKum Sarangarajan
  Status : In Progress
  Type : Task
}

class "CNG-300" << (T,lightblue) >> {
  Assigned to : Shafiqul Islam
  Status : To Do
  Type : Task
}

class "CNG-1330" << (T,lightblue) >> {
  Assigned to : Rukaya Ogazi-Khan
  Status : To Do
  Type : Task
}

class "CNG-667" << (S,lightblue) >> {
  Status : In Progress
  Type : Sub-task
}

class "CNG-1331" << (T,lightblue) >> {
  Assigned to : Rukaya Ogazi-Khan
  Status : To Do
  Type : Task
}

class "CNG-30" << (S,lightgreen) >> {
  Assigned to : Sulafa Malik
  Status : UAT
  Type : Story
}

class "CNG-32" << (S,lightgreen) >> {
  Assigned to : Sulafa Malik
  Status : UAT
  Type : Story
}

class "CNG-999" << (T,lightblue) >> {
  Assigned to : Amreen Fathima
  Status : QA
  Type : Task
}

class "CNG-518" << (T,lightblue) >> {
  Assigned to : Shafiqul Islam
  Status : UAT
  Type : Task
}

class "CNG-37" << (S,lightgreen) >> {
  Assigned to : Sulafa Malik
  Status : UAT
  Type : Story
}

class "CNG-1305" << (T,lightblue) >> {
  Assigned to : Rukaya Ogazi-Khan
  Status : In Progress
  Type : Task
}

class "CNG-870" << (T,lightblue) >> {
  Assigned to : Rukaya Ogazi-Khan
  Status : To Do
  Type : Task
}

class "CNG-873" << (T,lightblue) >> {
  Assigned to : Paolo Brunasti
  Status : In Progress
  Type : Task
}

class "CNG-1301" << (T,lightblue) >> {
  Assigned to : Rukaya Ogazi-Khan
  Status : To Do
  Type : Task
}

class "CNG-994" << (R,red) >> {
  Assigned to : Shafiqul Islam
  Status : To Do
  Type : Risks
}

class "CNG-993" << (R,red) >> {
  Assigned to : Sana Fathima
  Status : To Do
  Type : Risks
}

class "CNG-996" << (R,red) >> {
  Assigned to : Shafiqul Islam
  Status : To Do
  Type : Risks
}

class "CNG-1300" << (T,lightblue) >> {
  Assigned to : Dileep
  Status : In Progress
  Type : Task
}

class "CNG-995" << (R,red) >> {
  Assigned to : Shafiqul Islam
  Status : To Do
  Type : Risks
}

class "CNG-997" << (R,red) >> {
  Assigned to : Shafiqul Islam
  Status : To Do
  Type : Risks
}

class "CNG-41" << (S,lightgreen) >> {
  Assigned to : Jon Funnell
  Status : To Do
  Type : Story
}

class "CNG-42" << (S,lightgreen) >> {
  Assigned to : Sulafa Malik
  Status : UAT
  Type : Story
}

class "CNG-529" << (T,lightblue) >> {
  Assigned to : Rukaya Ogazi-Khan
  Status : To Do
  Type : Task
}

class "CNG-407" << (B,red) >> {
  Assigned to : Shafiqul Islam
  Status : On Hold / Monitoring
  Type : Bug
}

class "CNG-46" << (S,lightgreen) >> {
  Assigned to : Sulafa Malik
  Status : UAT
  Type : Story
}

class "CNG-1318" << (T,lightblue) >> {
  Assigned to : BharathKum Sarangarajan
  Status : To Do
  Type : Task
}

class "CNG-48" << (S,lightgreen) >> {
  Assigned to : Nigel Hassett
  Status : To Do
  Type : Story
}

class "CNG-1316" << (T,lightblue) >> {
  Status : To Do
  Type : Task
}

class "CNG-49" << (S,lightgreen) >> {
  Assigned to : Amreen Fathima
  Status : QA
  Type : Story
}

class "CNG-1315" << (T,lightblue) >> {
  Assigned to : BharathKum Sarangarajan
  Status : To Do
  Type : Task
}

class "CNG-521" << (B,red) >> {
  Assigned to : Jon Funnell
  Status : IN UAT
  Type : Bug
}

class "CNG-765" << (S,lightblue) >> {
  Assigned to : Jon Funnell
  Status : In Progress
  Type : Sub-task
}

class "CNG-646" << (B,red) >> {
  Assigned to : Sulafa Malik
  Status : IN UAT
  Type : Bug
}

class "CNG-887" << (B,red) >> {
  Assigned to : Riti Agarwal
  Status : Under Investigation
  Type : Bug
}

class "CNG-339" << (T,lightblue) >> {
  Assigned to : Abinaya Arumugasamy
  Status : Dev Review
  Type : Task
}

class "CNG-210" << (S,lightgreen) >> {
  Assigned to : Sulafa Malik
  Status : UAT
  Type : Story
}

class "CNG-697" << (T,lightblue) >> {
  Assigned to : Shafiqul Islam
  Status : In Progress
  Type : Task
}

class "CNG-696" << (T,lightblue) >> {
  Assigned to : Shafiqul Islam
  Status : In Progress
  Type : Task
}

class "CNG-333" << (T,lightblue) >> {
  Assigned to : BharathKum Sarangarajan
  Status : In Progress
  Type : Task
}

class "CNG-214" << (S,lightgreen) >> {
  Assigned to : Narayana Golla
  Status : In Progress
  Type : Story
}

class "CNG-217" << (S,lightgreen) >> {
  Assigned to : Sulafa Malik
  Status : UAT
  Type : Story
}

class "CNG-590" << (S,lightblue) >> {
  Assigned to : Shafiqul Islam
  Status : To Do
  Type : Sub-task
}

class "CNG-592" << (S,lightblue) >> {
  Assigned to : Anand Dixit
  Status : To Do
  Type : Sub-task
}

class "CNG-591" << (S,lightblue) >> {
  Assigned to : Shafiqul Islam
  Status : To Do
  Type : Sub-task
}

class "CNG-352" << (B,red) >> {
  Assigned to : Nigel Hassett
  Status : On Hold / Monitoring
  Type : Bug
}

class "CNG-908" << (T,lightblue) >> {
  Assigned to : BharathKum Sarangarajan
  Status : In Progress
  Type : Task
}

class "CNG-902" << (T,lightblue) >> {
  Assigned to : Rukaya Ogazi-Khan
  Status : To Do
  Type : Task
}

class "CNG-28" << (S,lightgreen) >> {
  Assigned to : Sulafa Malik
  Status : UAT
  Type : Story
}

class "CNG-906" << (T,lightblue) >> {
  Assigned to : Rukaya Ogazi-Khan
  Status : To Do
  Type : Task
}

class "CNG-589" << (S,lightblue) >> {
  Assigned to : Shafiqul Islam
  Status : In Progress
  Type : Sub-task
}

class "CNG-346" << (B,red) >> {
  Assigned to : Amreen Fathima
  Status : In System Test
  Type : Bug
}

class "CNG-1185" << (T,lightblue) >> {
  Assigned to : Rukaya Ogazi-Khan
  Status : To Do
  Type : Task
}

class "CNG-1183" << (T,lightblue) >> {
  Assigned to : Rukaya Ogazi-Khan
  Status : To Do
  Type : Task
}

class "CNG-680" << (S,lightblue) >> {
  Status : In Progress
  Type : Sub-task
}

class "CNG-1060" << (T,lightblue) >> {
  Assigned to : Rukaya Ogazi-Khan
  Status : To Do
  Type : Task
}

class "CNG-1182" << (T,lightblue) >> {
  Assigned to : Shafiqul Islam
  Status : To Do
  Type : Task
}

class "CNG-440" << (T,lightblue) >> {
  Assigned to : Shafiqul Islam
  Status : To Do
  Type : Task
}

class "CNG-682" << (S,lightblue) >> {
  Status : To Do
  Type : Sub-task
}

class "CNG-681" << (S,lightblue) >> {
  Assigned to : Sulafa Malik
  Status : In Progress
  Type : Sub-task
}

class "CNG-560" << (S,lightblue) >> {
  Status : To Do
  Type : Sub-task
}

class "CNG-559" << (S,lightblue) >> {
  Assigned to : Sulafa Malik
  Status : To Do
  Type : Sub-task
}

class "CNG-312" << (B,red) >> {
  Assigned to : Sulafa Malik
  Status : IN UAT
  Type : Bug
}

class "CNG-795" << (T,lightblue) >> {
  Assigned to : Shafiqul Islam
  Status : In Progress
  Type : Task
}

class "CNG-1189" << (T,lightblue) >> {
  Assigned to : Rukaya Ogazi-Khan
  Status : To Do
  Type : Task
}

class "CNG-679" << (S,lightblue) >> {
  Status : In Progress
  Type : Sub-task
}

class "CNG-558" << (S,lightblue) >> {
  Status : To Do
  Type : Sub-task
}

class "CNG-1187" << (T,lightblue) >> {
  Status : To Do
  Type : Task
}

class "CNG-557" << (S,lightblue) >> {
  Assigned to : Shafiqul Islam
  Status : In Progress
  Type : Sub-task
}

class "CNG-1075" << (T,lightblue) >> {
  Assigned to : Rukaya Ogazi-Khan
  Status : In Progress
  Type : Task
}

class "CNG-1190" << (T,lightblue) >> {
  Assigned to : Shafiqul Islam
  Status : To Do
  Type : Task
}

class "CNG-1191" << (T,lightblue) >> {
  Assigned to : Shafiqul Islam
  Status : To Do
  Type : Task
}

class "CNG-684" << (S,lightblue) >> {
  Assigned to : Shafiqul Islam
  Status : To Do
  Type : Sub-task
}

class "CNG-686" << (S,lightblue) >> {
  Status : QA
  Type : Sub-task
}

class "CNG-685" << (S,lightblue) >> {
  Assigned to : Merin Joseph
  Status : To Do
  Type : Sub-task
}

class "CNG-688" << (S,lightblue) >> {
  Status : To Do
  Type : Sub-task
}

class "CNG-687" << (S,lightblue) >> {
  Assigned to : Sulafa Malik
  Status : To Do
  Type : Sub-task
}

class "CNG-689" << (S,lightblue) >> {
  Status : QA
  Type : Sub-task
}

class "CNG-383" << (T,lightblue) >> {
  Assigned to : Sulafa Malik
  Status : UAT
  Type : Task
}

class "CNG-1281" << (T,lightblue) >> {
  Assigned to : Rukaya Ogazi-Khan
  Status : To Do
  Type : Task
}

class "CNG-385" << (T,lightblue) >> {
  Assigned to : Shafiqul Islam
  Status : To Do
  Type : Task
}

class "CNG-814" << (S,lightblue) >> {
  Status : In Progress
  Type : Sub-task
}

class "CNG-376" << (S,lightgreen) >> {
  Assigned to : Abdul Kader Nabil
  Status : Dev Review
  Type : Story
}

class "CNG-255" << (T,lightblue) >> {
  Assigned to : Deepak Ingwale
  Status : Dev Review
  Type : Task
}

class "CNG-257" << (S,lightgreen) >> {
  Assigned to : Tony Cassidy
  Status : UAT
  Type : Story
}

class "CNG-377" << (S,lightgreen) >> {
  Assigned to : Abinaya Arumugasamy
  Status : Dev Review
  Type : Story
}

class "CNG-1289" << (T,lightblue) >> {
  Status : To Do
  Type : Task
}

class "CNG-1174" << (S,lightblue) >> {
  Status : To Do
  Type : Sub-task
}

class "CNG-1175" << (T,lightblue) >> {
  Assigned to : Rukaya Ogazi-Khan
  Status : In Progress
  Type : Task
}

class "CNG-1172" << (S,lightblue) >> {
  Status : To Do
  Type : Sub-task
}

class "CNG-394" << (T,lightblue) >> {
  Assigned to : Merin Joseph
  Status : QA
  Type : Task
}

class "CNG-393" << (S,lightgreen) >> {
  Assigned to : Deepak Ingwale
  Status : In Progress
  Type : Story
}

class "CNG-395" << (T,lightblue) >> {
  Assigned to : Merin Joseph
  Status : QA
  Type : Task
}

class "CNG-707" << (S,lightgreen) >> {
  Assigned to : Anand Dixit
  Status : To Do
  Type : Story
}

class "CNG-387" << (S,lightgreen) >> {
  Assigned to : Sulafa Malik
  Status : UAT
  Type : Story
}

class "CNG-388" << (S,lightgreen) >> {
  Assigned to : Sushant Khandelwal
  Status : In Progress
  Type : Story
}

class "CNG-1299" << (T,lightblue) >> {
  Assigned to : Rukaya Ogazi-Khan
  Status : In Progress
  Type : Task
}

class "CNG-269" << (S,lightgreen) >> {
  Assigned to : Abdul Kader Nabil
  Status : Dev Review
  Type : Story
}

class "CNG-1179" << (T,lightblue) >> {
  Assigned to : Rukaya Ogazi-Khan
  Status : To Do
  Type : Task
}

class "CNG-700" << (T,lightblue) >> {
  Assigned to : Shafiqul Islam
  Status : To Do
  Type : Task
}

class "CNG-1141" << (T,lightblue) >> {
  Assigned to : Amreen Fathima
  Status : To Do
  Type : Task
}

class "CNG-1142" << (T,lightblue) >> {
  Assigned to : Stephy Aniyan
  Status : To Do
  Type : Task
}

class "CNG-1140" << (T,lightblue) >> {
  Assigned to : Amreen Fathima
  Status : To Do
  Type : Task
}

class "CNG-356" << (B,red) >> {
  Assigned to : Sushant Khandelwal
  Status : In Work
  Type : Bug
}

class "CNG-357" << (B,red) >> {
  Assigned to : Amreen Fathima
  Status : In System Test
  Type : Bug
}

class "CNG-1273" << (T,lightblue) >> {
  Assigned to : Rukaya Ogazi-Khan
  Status : Design Review
  Type : Task
}

class "CNG-1274" << (T,lightblue) >> {
  Assigned to : Rukaya Ogazi-Khan
  Status : To Do
  Type : Task
}

class "CNG-1153" << (T,lightblue) >> {
  Assigned to : Stephy Aniyan
  Status : QA
  Type : Task
}

class "CNG-491" << (T,lightblue) >> {
  Assigned to : Riti Agarwal
  Status : To Do
  Type : Task
}

class "CNG-1151" << (T,lightblue) >> {
  Assigned to : BharathKum Sarangarajan
  Status : In Progress
  Type : Task
}

class "CNG-1030" << (S,lightblue) >> {
  Assigned to : Pratik Desai
  Status : In Review (migrated)
  Type : Sub-task
}

class "CNG-494" << (B,red) >> {
  Assigned to : Sulafa Malik
  Status : IN UAT
  Type : Bug
}

class "CNG-804" << (S,lightblue) >> {
  Assigned to : Jon Funnell
  Status : To Do
  Type : Sub-task
}

class "CNG-1039" << (S,lightblue) >> {
  Assigned to : Stephy Aniyan
  Status : In Progress
  Type : Sub-task
}

class "CNG-364" << (B,red) >> {
  Assigned to : Nigel Hassett
  Status : Under Investigation
  Type : Bug
}

class "CNG-485" << (S,lightgreen) >> {
  Assigned to : Sulafa Malik
  Status : UAT
  Type : Story
}

class "CNG-367" << (B,red) >> {
  Assigned to : Shafiqul Islam
  Status : In Work
  Type : Bug
}

class "CNG-1279" << (T,lightblue) >> {
  Assigned to : Rukaya Ogazi-Khan
  Status : To Do
  Type : Task
}

class "CNG-366" << (B,red) >> {
  Assigned to : Merin Joseph
  Status : In Work
  Type : Bug
}

class "CNG-369" << (S,lightgreen) >> {
  Assigned to : Abdul Kader Nabil
  Status : Dev Review
  Type : Story
}

class "CNG-1156" << (T,lightblue) >> {
  Assigned to : Rukaya Ogazi-Khan
  Status : To Do
  Type : Task
}

class "CNG-1275" << (T,lightblue) >> {
  Assigned to : Rukaya Ogazi-Khan
  Status : In Progress
  Type : Task
}

class "CNG-800" << (S,lightblue) >> {
  Assigned to : Anand Dixit
  Status : In Progress
  Type : Sub-task
}

class "CNG-1154" << (T,lightblue) >> {
  Assigned to : Rukaya Ogazi-Khan
  Status : To Do
  Type : Task
}

class "CNG-1361" << (T,lightblue) >> {
  Status : In Progress
  Type : Task
}

class "CNG-90" << (S,lightgreen) >> {
  Assigned to : Merin Joseph
  Status : QA
  Type : Story
}

class "CNG-738" << (T,lightblue) >> {
  Assigned to : Anand Dixit
  Status : To Do
  Type : Task
}

class "CNG-739" << (T,lightblue) >> {
  Assigned to : Shafiqul Islam
  Status : To Do
  Type : Task
}

class "CNG-1008" << (T,lightblue) >> {
  Status : To Do
  Type : Task
}

class "CNG-299" << (T,lightblue) >> {
  Assigned to : Sana Fathima
  Status : To Do
  Type : Task
}

class "CNG-1007" << (T,lightblue) >> {
  Status : To Do
  Type : Task
}

class "CNG-1004" << (R,red) >> {
  Assigned to : Sana Fathima
  Status : In Progress
  Type : Risks
}

class "CNG-1005" << (T,lightblue) >> {
  Assigned to : Poornima Sajeendran
  Status : Design Review
  Type : Task
}

class "CNG-850" << (T,lightblue) >> {
  Status : To Do
  Type : Task
}

class "CNG-1123" << (T,lightblue) >> {
  Assigned to : Deepak Ingwale
  Status : In Progress
  Type : Task
}

class "CNG-611" << (S,lightblue) >> {
  Assigned to : Amreen Fathima
  Status : To Do
  Type : Sub-task
}

class "CNG-610" << (S,lightblue) >> {
  Assigned to : Amreen Fathima
  Status : QA
  Type : Sub-task
}

class "CNG-1363" << (T,lightblue) >> {
  Status : To Do
  Type : Task
}

class "CNG-733" << (T,lightblue) >> {
  Assigned to : Shafiqul Islam
  Status : In Progress
  Type : Task
}

class "CNG-975" << (T,lightblue) >> {
  Assigned to : Anand Jajoo
  Status : In Progress
  Type : Task
}

class "CNG-1010" << (I,orange) >> {
  Assigned to : Shafiqul Islam
  Status : To Do
  Type : Issue
}

class "CNG-626" << (T,lightblue) >> {
  Assigned to : Shafiqul Islam
  Status : To Do
  Type : Task
}

class "CNG-506" << (T,lightblue) >> {
  Status : To Do
  Type : Task
}

class "CNG-629" << (T,lightblue) >> {
  Assigned to : Sushant Khandelwal
  Status : Dev Review
  Type : Task
}

class "CNG-508" << (T,lightblue) >> {
  Assigned to : Rukaya Ogazi-Khan
  Status : To Do
  Type : Task
}

class "CNG-981" << (T,lightblue) >> {
  Status : In Progress
  Type : Task
}

class "CNG-1017" << (T,lightblue) >> {
  Assigned to : Shafiqul Islam
  Status : To Do
  Type : Task
}

class "CNG-1139" << (T,lightblue) >> {
  Assigned to : Amreen Fathima
  Status : In Progress
  Type : Task
}

class "CNG-1378" << (T,lightblue) >> {
  Status : To Do
  Type : Task
}

class "CNG-1015" << (T,lightblue) >> {
  Assigned to : Sushant Khandelwal
  Status : In Progress
  Type : Task
}

class "CNG-1379" << (T,lightblue) >> {
  Assigned to : Merin Joseph
  Status : In Progress
  Type : Task
}

class "CNG-740" << (T,lightblue) >> {
  Assigned to : Shafiqul Islam
  Status : To Do
  Type : Task
}

class "CNG-1013" << (B,red) >> {
  Assigned to : Stephy Aniyan
  Status : In System Test
  Type : Bug
}

class "CNG-984" << (T,lightblue) >> {
  Status : To Do
  Type : Task
}

class "CNG-1011" << (R,red) >> {
  Assigned to : Sushant Khandelwal
  Status : To Do
  Type : Risks
}

class "CNG-986" << (W,lightblue) >> {
  Assigned to : Shafiqul Islam
  Status : To Do
  Type : Work Request
}

class "CNG-865" << (T,lightblue) >> {
  Assigned to : Nigel Hassett
  Status : To Do
  Type : Task
}

class "CNG-623" << (S,lightblue) >> {
  Assigned to : Sulafa Malik
  Status : UAT
  Type : Sub-task
}

class "CNG-1012" << (B,red) >> {
  Assigned to : Stephy Aniyan
  Status : In System Test
  Type : Bug
}

class "CNG-70" << (S,lightgreen) >> {
  Assigned to : Sushant Khandelwal
  Status : In Progress
  Type : Story
}

class "CNG-71" << (S,lightgreen) >> {
  Assigned to : BharathKum Sarangarajan
  Status : To Do
  Type : Story
}

class "CNG-72" << (S,lightgreen) >> {
  Assigned to : Jon Funnell
  Status : To Do
  Type : Story
}

class "CNG-73" << (S,lightgreen) >> {
  Assigned to : Sushant Khandelwal
  Status : Design Review
  Type : Story
}

class "CNG-74" << (S,lightgreen) >> {
  Assigned to : Shafiqul Islam
  Status : To Do
  Type : Story
}

class "CNG-77" << (S,lightgreen) >> {
  Assigned to : Jon Funnell
  Status : To Do
  Type : Story
}

class "CNG-78" << (S,lightgreen) >> {
  Assigned to : BharathKum Sarangarajan
  Status : In Progress
  Type : Story
}

class "CNG-79" << (S,lightgreen) >> {
  Assigned to : Deepak Ingwale
  Status : Build
  Type : Story
}

class "CNG-1107" << (T,lightblue) >> {
  Assigned to : Paolo Brunasti
  Status : In Progress
  Type : Task
}

class "CNG-1229" << (I,orange) >> {
  Assigned to : Dileep
  Status : In Progress
  Type : Issue
}

class "CNG-398" << (T,lightblue) >> {
  Assigned to : Amreen Fathima
  Status : To Do
  Type : Task
}

class "CNG-1225" << (S,lightblue) >> {
  Assigned to : Merin Joseph
  Status : In Progress
  Type : Sub-task
}

class "CNG-710" << (S,lightblue) >> {
  Assigned to : Shafiqul Islam
  Status : To Do
  Type : Sub-task
}

class "CNG-1222" << (T,lightblue) >> {
  Assigned to : Nigel Hassett
  Status : To Do
  Type : Task
}

class "CNG-1223" << (S,lightgreen) >> {
  Assigned to : BharathKum Sarangarajan
  Status : To Do
  Type : Story
}

class "CNG-711" << (S,lightblue) >> {
  Assigned to : Iswarya Gunasegaran
  Status : To Do
  Type : Sub-task
}

class "CNG-953" << (T,lightblue) >> {
  Assigned to : Nigel Hassett
  Status : To Do
  Type : Task
}

class "CNG-1230" << (T,lightblue) >> {
  Assigned to : Shafiqul Islam
  Status : In Progress
  Type : Task
}

class "CNG-293" << (T,lightblue) >> {
  Assigned to : Poornima Sajeendran
  Status : In Progress
  Type : Task
}

class "CNG-294" << (T,lightblue) >> {
  Assigned to : Nigel Hassett
  Status : To Do
  Type : Task
}

class "CNG-81" << (S,lightgreen) >> {
  Assigned to : Sushant Khandelwal
  Status : Dev Review
  Type : Story
}

class "CNG-84" << (S,lightgreen) >> {
  Assigned to : Deepak Ingwale
  Status : Design Review
  Type : Story
}

class "CNG-604" << (T,lightblue) >> {
  Assigned to : Anand Dixit
  Status : Dev Review
  Type : Task
}

class "CNG-606" << (B,red) >> {
  Assigned to : Sulafa Malik
  Status : IN UAT
  Type : Bug
}

class "CNG-726" << (S,lightblue) >> {
  Assigned to : Abinaya Arumugasamy
  Status : To Do
  Type : Sub-task
}

class "CNG-609" << (T,lightblue) >> {
  Assigned to : Amreen Fathima
  Status : QA
  Type : Task
}

class "CNG-961" << (S,lightblue) >> {
  Assigned to : Anand Jajoo
  Status : In Progress
  Type : Sub-task
}

class "CNG-1235" << (T,lightblue) >> {
  Assigned to : Paolo Brunasti
  Status : In Progress
  Type : Task
}

class "CNG-1236" << (T,lightblue) >> {
  Status : In Progress
  Type : Task
}

class "CNG-723" << (T,lightblue) >> {
  Status : To Do
  Type : Task
}

class "CNG-964" << (T,lightblue) >> {
  Assigned to : Iswarya Gunasegaran
  Status : To Do
  Type : Task
}



' Links =======
"CNG-1208" <.. "CNG-710" : Relates
"CNG-1205" <.. "CNG-685" : Relates
"CNG-654" <.. "CNG-536" : Relates
"CNG-654" <.. "CNG-394" : Relates
"CNG-533" <.. "CNG-688" : Relates
"CNG-536" <.. "CNG-214" : Relates
"CNG-536" <.. "CNG-684" : Relates
"CNG-536" <.. "CNG-777" : Relates
"CNG-415" <.. "CNG-440" : Relates
"CNG-415" <.. "CNG-385" : Relates
"CNG-415" <.. "CNG-679" : Relates
"CNG-667" <.. "CNG-1007" : Relates
"CNG-999" <.. "CNG-700" : Relates
"CNG-518" <.. "CNG-684" : Relates
"CNG-518" <.. "CNG-739" : Relates
"CNG-870" <.. "CNG-733" : Relates
"CNG-873" <.. "CNG-1107" : Relates
"CNG-873" <.. "CNG-1123" : Relates
"CNG-873" <.. "CNG-1205" : Relates
"CNG-873" <.. "CNG-961" : Relates
"CNG-873" <.. "CNG-710" : Relates
"CNG-873" <.. "CNG-711" : Relates
"CNG-873" <.. "CNG-1230" : Relates
"CNG-873" <.. "CNG-557" : Relates
"CNG-873" <.. "CNG-1273" : Relates
"CNG-873" <.. "CNG-1274" : Relates
"CNG-873" <.. "CNG-1275" : Relates
"CNG-873" <.. "CNG-1305" : Relates
"CNG-873" <.. "CNG-1315" : Relates
"CNG-873" <.. "CNG-1229" : Relates
"CNG-873" <.. "CNG-1379" : Relates
"CNG-993" <.. "CNG-1008" : Relates
"CNG-529" <.. "CNG-733" : Relates
"CNG-407" <.. "CNG-684" : Relates
"CNG-1318" <.. "CNG-684" : Relates
"CNG-1316" <.. "CNG-733" : Relates
"CNG-1316" <.. "CNG-367" : Relates
"CNG-521" <.. "CNG-686" : Relates
"CNG-646" <.. "CNG-687" : Relates
"CNG-887" <.. "CNG-687" : Relates
"CNG-696" <.. "CNG-697" : Relates
"CNG-696" <.. "CNG-740" : Relates
"CNG-214" <.. "CNG-210" : Relates
"CNG-590" <.. "CNG-339" : Relates
"CNG-591" <.. "CNG-339" : Relates
"CNG-352" <.. "CNG-679" : Relates
"CNG-589" <.. "CNG-1363" : Relates
"CNG-680" <.. "CNG-366" : Relates
"CNG-682" <.. "CNG-1005" : Relates
"CNG-682" <.. "CNG-48" : Relates
"CNG-440" <.. "CNG-679" : Relates
"CNG-681" <.. "CNG-494" : Relates
"CNG-681" <.. "CNG-2" : Relates
"CNG-681" <.. "CNG-28" : Relates
"CNG-681" <.. "CNG-30" : Relates
"CNG-681" <.. "CNG-32" : Relates
"CNG-681" <.. "CNG-37" : Relates
"CNG-681" <.. "CNG-41" : Relates
"CNG-681" <.. "CNG-42" : Relates
"CNG-681" <.. "CNG-383" : Relates
"CNG-681" <.. "CNG-394" : Relates
"CNG-560" <.. "CNG-41" : Relates
"CNG-560" <.. "CNG-908" : Relates
"CNG-559" <.. "CNG-79" : Relates
"CNG-559" <.. "CNG-81" : Relates
"CNG-559" <.. "CNG-84" : Relates
"CNG-559" <.. "CNG-369" : Relates
"CNG-559" <.. "CNG-78" : Relates
"CNG-559" <.. "CNG-376" : Relates
"CNG-312" <.. "CNG-559" : Relates
"CNG-795" <.. "CNG-887" : Relates
"CNG-679" <.. "CNG-300" : Relates
"CNG-679" <.. "CNG-893" : Relates
"CNG-679" <.. "CNG-299" : Relates
"CNG-679" <.. "CNG-364" : Relates
"CNG-679" <.. "CNG-1190" : Relates
"CNG-679" <.. "CNG-357" : Relates
"CNG-558" <.. "CNG-269" : Relates
"CNG-684" <.. "CNG-90" : Relates
"CNG-684" <.. "CNG-999" : Relates
"CNG-686" <.. "CNG-50" : Relates
"CNG-686" <.. "CNG-70" : Relates
"CNG-686" <.. "CNG-90" : Relates
"CNG-686" <.. "CNG-269" : Relates
"CNG-686" <.. "CNG-210" : Relates
"CNG-686" <.. "CNG-999" : Relates
"CNG-685" <.. "CNG-70" : Relates
"CNG-685" <.. "CNG-50" : Relates
"CNG-685" <.. "CNG-999" : Relates
"CNG-685" <.. "CNG-1225" : Relates
"CNG-685" <.. "CNG-1151" : Relates
"CNG-685" <.. "CNG-255" : Relates
"CNG-688" <.. "CNG-77" : Relates
"CNG-687" <.. "CNG-28" : Relates
"CNG-687" <.. "CNG-30" : Relates
"CNG-687" <.. "CNG-37" : Relates
"CNG-687" <.. "CNG-42" : Relates
"CNG-687" <.. "CNG-50" : Relates
"CNG-687" <.. "CNG-66" : Relates
"CNG-687" <.. "CNG-70" : Relates
"CNG-687" <.. "CNG-90" : Relates
"CNG-687" <.. "CNG-217" : Relates
"CNG-687" <.. "CNG-269" : Relates
"CNG-687" <.. "CNG-69" : Relates
"CNG-687" <.. "CNG-49" : Relates
"CNG-687" <.. "CNG-51" : Relates
"CNG-687" <.. "CNG-387" : Relates
"CNG-687" <.. "CNG-536" : Relates
"CNG-700" <.. "CNG-707" : Relates
"CNG-700" <.. "CNG-655" : Relates
"CNG-800" <.. "CNG-548" : Relates
"CNG-850" <.. "CNG-696" : Relates
"CNG-850" <.. "CNG-333" : Relates
"CNG-611" <.. "CNG-686" : Relates
"CNG-610" <.. "CNG-686" : Relates
"CNG-733" <.. "CNG-776" : Relates
"CNG-733" <.. "CNG-1060" : Relates
"CNG-733" <.. "CNG-1154" : Relates
"CNG-733" <.. "CNG-651" : Relates
"CNG-733" <.. "CNG-506" : Relates
"CNG-733" <.. "CNG-1281" : Relates
"CNG-733" <.. "CNG-1299" : Relates
"CNG-733" <.. "CNG-1300" : Relates
"CNG-733" <.. "CNG-1301" : Relates
"CNG-733" <.. "CNG-1330" : Relates
"CNG-733" <.. "CNG-1331" : Relates
"CNG-733" <.. "CNG-1329" : Relates
"CNG-629" <.. "CNG-395" : Relates
"CNG-508" <.. "CNG-733" : Relates
"CNG-981" <.. "CNG-795" : Relates
"CNG-984" <.. "CNG-993" : Relates
"CNG-984" <.. "CNG-994" : Relates
"CNG-984" <.. "CNG-995" : Relates
"CNG-984" <.. "CNG-996" : Relates
"CNG-984" <.. "CNG-997" : Relates
"CNG-984" <.. "CNG-1004" : Relates
"CNG-986" <.. "CNG-795" : Relates
"CNG-865" <.. "CNG-68" : Relates
"CNG-623" <.. "CNG-687" : Relates
"CNG-710" <.. "CNG-975" : Relates
"CNG-710" <.. "CNG-865" : Relates
"CNG-953" <.. "CNG-795" : Relates
"CNG-711" <.. "CNG-651" : Relates
"CNG-604" <.. "CNG-738" : Relates
"CNG-604" <.. "CNG-723" : Relates
"CNG-606" <.. "CNG-686" : Relates
"CNG-609" <.. "CNG-686" : Relates
"CNG-964" <.. "CNG-795" : Relates
"CNG-50" <.. "CNG-383" : Relates
"CNG-50" <.. "CNG-629" : Relates
"CNG-50" <.. "CNG-395" : Relates
"CNG-55" <.. "CNG-684" : Relates
"CNG-55" <.. "CNG-773" : Relates
"CNG-57" <.. "CNG-687" : Relates
"CNG-69" <.. "CNG-346" : Relates
"CNG-69" <.. "CNG-686" : Relates
"CNG-32" <.. "CNG-28" : Relates
"CNG-32" <.. "CNG-30" : Relates
"CNG-46" <.. "CNG-69" : Relates
"CNG-46" <.. "CNG-521" : Relates
"CNG-46" <.. "CNG-629" : Relates
"CNG-46" <.. "CNG-687" : Relates
"CNG-48" <.. "CNG-626" : Relates
"CNG-49" <.. "CNG-609" : Relates
"CNG-49" <.. "CNG-689" : Relates
"CNG-908" <.. "CNG-785" : Relates
"CNG-902" <.. "CNG-733" : Relates
"CNG-906" <.. "CNG-733" : Relates
"CNG-1183" <.. "CNG-733" : Relates
"CNG-1182" <.. "CNG-733" : Relates
"CNG-1189" <.. "CNG-733" : Relates
"CNG-1187" <.. "CNG-560" : Relates
"CNG-1075" <.. "CNG-733" : Relates
"CNG-383" <.. "CNG-395" : Relates
"CNG-385" <.. "CNG-679" : Relates
"CNG-385" <.. "CNG-395" : Relates
"CNG-376" <.. "CNG-377" : Relates
"CNG-257" <.. "CNG-592" : Relates
"CNG-1289" <.. "CNG-557" : Relates
"CNG-1174" <.. "CNG-765" : Relates
"CNG-1174" <.. "CNG-804" : Relates
"CNG-1175" <.. "CNG-733" : Relates
"CNG-1172" <.. "CNG-765" : Relates
"CNG-1172" <.. "CNG-804" : Relates
"CNG-394" <.. "CNG-687" : Relates
"CNG-393" <.. "CNG-655" : Relates
"CNG-395" <.. "CNG-73" : Relates
"CNG-388" <.. "CNG-686" : Relates
"CNG-1179" <.. "CNG-733" : Relates
"CNG-269" <.. "CNG-685" : Relates
"CNG-1141" <.. "CNG-1039" : Relates
"CNG-1142" <.. "CNG-1039" : Relates
"CNG-1140" <.. "CNG-1039" : Relates
"CNG-356" <.. "CNG-73" : Relates
"CNG-356" <.. "CNG-726" : Relates
"CNG-1153" <.. "CNG-685" : Relates
"CNG-491" <.. "CNG-73" : Relates
"CNG-491" <.. "CNG-723" : Relates
"CNG-1151" <.. "CNG-1030" : Relates
"CNG-485" <.. "CNG-69" : Relates
"CNG-485" <.. "CNG-686" : Relates
"CNG-1279" <.. "CNG-733" : Relates
"CNG-366" <.. "CNG-984" : Relates
"CNG-1156" <.. "CNG-733" : Relates
"CNG-1361" <.. "CNG-590" : Relates
"CNG-90" <.. "CNG-69" : Relates
"CNG-1007" <.. "CNG-383" : Relates
"CNG-1007" <.. "CNG-395" : Relates
"CNG-1007" <.. "CNG-394" : Relates
"CNG-1010" <.. "CNG-984" : Relates
"CNG-1017" <.. "CNG-700" : Relates
"CNG-1139" <.. "CNG-1039" : Relates
"CNG-1378" <.. "CNG-591" : Relates
"CNG-1015" <.. "CNG-814" : Relates
"CNG-1013" <.. "CNG-558" : Relates
"CNG-1011" <.. "CNG-984" : Relates
"CNG-1012" <.. "CNG-558" : Relates
"CNG-70" <.. "CNG-684" : Relates
"CNG-70" <.. "CNG-629" : Relates
"CNG-70" <.. "CNG-1191" : Relates
"CNG-71" <.. "CNG-684" : Relates
"CNG-72" <.. "CNG-70" : Relates
"CNG-74" <.. "CNG-684" : Relates
"CNG-398" <.. "CNG-689" : Relates
"CNG-1222" <.. "CNG-873" : Relates
"CNG-1223" <.. "CNG-999" : Relates
"CNG-293" <.. "CNG-679" : Relates
"CNG-293" <.. "CNG-1005" : Relates
"CNG-294" <.. "CNG-679" : Relates
"CNG-84" <.. "CNG-592" : Relates
"CNG-1235" <.. "CNG-388" : Relates
"CNG-1235" <.. "CNG-32" : Relates
"CNG-1235" <.. "CNG-46" : Relates
"CNG-1235" <.. "CNG-69" : Relates
"CNG-1235" <.. "CNG-387" : Relates
"CNG-1235" <.. "CNG-873" : Relates
"CNG-1235" <.. "CNG-1185" : Relates
"CNG-1236" <.. "CNG-733" : Relates


@enduml
