@startuml
'https://plantuml.com/class-diagram

' GENERATE CLASS DIAGRAM ===========
' Generated at    : Tue May 14 10:46:39 CEST 2024

title Jira Tickets for Link Type Cloners
hide empty members

legend
Jira Ticket Status
----
(Done) : 3
(To Do) : 1
----
Jira Ticket Types
----
(Story) : 4
end legend


' Tickets =======
class "ENKPS-30" << (S,lightgreen) >> {
  Summary : Create Input Component
  Assigned to : Eniko Kosztolanyi
  Status : Done
  Type : Story
  Points : 5.0
}

class "ENKPS-76" << (S,lightgreen) >> {
  Summary : Content drive error states for input component
  Assigned to : Eniko Kosztolanyi
  Status : To Do
  Type : Story
  Points : 5.0
}

class "ENKPS-36" << (S,lightgreen) >> {
  Summary : Add styling for button sty
  Status : Done
  Type : Story
}

class "ENKPS-27" << (S,lightgreen) >> {
  Summary : Create Button Component
  Assigned to : Tom Pope
  Status : Done
  Type : Story
  Points : 3.0
}



' Links =======
"ENKPS-30" <.. "ENKPS-76" : Cloners
"ENKPS-27" <.. "ENKPS-36" : Cloners


@enduml
