@startuml
'https://plantuml.com/class-diagram

' GENERATE CLASS DIAGRAM ===========
' Generated at    : Tue May 14 10:46:39 CEST 2024

title Jira Tickets for Person Eniko Kosztolanyi
hide empty members

legend
Jira Ticket Status
----
(Done) : 7
(To Do) : 2
(In Progress) : 1
----
Jira Ticket Types
----
(Task) : 4
(Story) : 6
end legend


' Tickets =======
class "ENKPS-30" << (S,lightgreen) >> {
  Summary : Create Input Component
  Assigned to : Eniko Kosztolanyi
  Status : Done
  Type : Story
  Points : 5.0
}

class "ENKPS-42" << (S,lightgreen) >> {
  Summary : Assemble create account page
  Status : To Do
  Type : Story
  Points : 5.0
}

class "ENKPS-76" << (S,lightgreen) >> {
  Summary : Content drive error states for input component
  Assigned to : Eniko Kosztolanyi
  Status : To Do
  Type : Story
  Points : 5.0
}

class "ENKPS-21" << (T,lightblue) >> {
  Summary : Setup pre-commit hooks and linters
  Assigned to : Eniko Kosztolanyi
  Status : Done
  Type : Task
  Points : 3.0
}

class "ENKPS-57" << (S,lightgreen) >> {
  Summary : Account confirmation card
  Assigned to : Eniko Kosztolanyi
  Status : In Progress
  Type : Story
  Points : 3.0
}

class "ENKPS-25" << (T,lightblue) >> {
  Summary : Create routing for all of account creation user flow
  Assigned to : Eniko Kosztolanyi
  Status : Done
  Type : Task
  Points : 3.0
}

class "ENKPS-59" << (S,lightgreen) >> {
  Summary : Create radio button component
  Assigned to : Eniko Kosztolanyi
  Status : Done
  Type : Story
  Points : 3.0
}

class "ENKPS-28" << (T,lightblue) >> {
  Summary : Create the theme and configuration
  Assigned to : Eniko Kosztolanyi
  Status : Done
  Type : Task
  Points : 5.0
}

class "ENKPS-29" << (S,lightgreen) >> {
  Summary : SPIKE: What does KPN use for accessibility and what techniques we should adopt
  Assigned to : Eniko Kosztolanyi
  Status : Done
  Type : Story
}

class "ENKPS-18" << (T,lightblue) >> {
  Summary : Project initialisation
  Assigned to : Eniko Kosztolanyi
  Status : Done
  Type : Task
  Points : 3.0
}



' Links =======
"ENKPS-30" <.. "ENKPS-28" : Blocks
"ENKPS-30" <.. "ENKPS-76" : Cloners
"ENKPS-30" <.. "ENKPS-59" : Issue split
"ENKPS-76" <.. "ENKPS-30" : Relates
"ENKPS-57" <.. "ENKPS-42" : Blocks


@enduml
