@startuml
'https://plantuml.com/class-diagram

' GENERATE CLASS DIAGRAM ===========
' Generated at    : Tue May 14 10:46:39 CEST 2024

title Jira Tickets for Person Tom Pope
hide empty members

legend
Jira Ticket Status
----
(Done) : 8
----
Jira Ticket Types
----
(Task) : 4
(Story) : 4
end legend


' Tickets =======
class "ENKPS-43" << (S,lightgreen) >> {
  Summary : Footer for create account page
  Assigned to : Tom Pope
  Status : Done
  Type : Story
  Points : 3.0
}

class "ENKPS-68" << (T,lightblue) >> {
  Summary : SPIKE: Determine best course of action for Contentful localisation vs integration of Vue I18n to the project
  Assigned to : Tom Pope
  Status : Done
  Type : Task
}

class "ENKPS-69" << (T,lightblue) >> {
  Summary : SPIKE: Write out BE requirements for a Postgres build
  Assigned to : Tom Pope
  Status : Done
  Type : Task
}

class "ENKPS-36" << (S,lightgreen) >> {
  Summary : Add styling for button sty
  Status : Done
  Type : Story
}

class "ENKPS-37" << (S,lightgreen) >> {
  Summary : SPIKE: Compare Twillio and Supabase for email notifications
  Assigned to : Tom Pope
  Status : Done
  Type : Story
}

class "ENKPS-26" << (T,lightblue) >> {
  Summary : Create Card Component 
  Assigned to : Tom Pope
  Status : Done
  Type : Task
  Points : 3.0
}

class "ENKPS-27" << (S,lightgreen) >> {
  Summary : Create Button Component
  Assigned to : Tom Pope
  Status : Done
  Type : Story
  Points : 3.0
}

class "ENKPS-28" << (T,lightblue) >> {
  Summary : Create the theme and configuration
  Assigned to : Eniko Kosztolanyi
  Status : Done
  Type : Task
  Points : 5.0
}



' Links =======
"ENKPS-26" <.. "ENKPS-28" : Blocks
"ENKPS-27" <.. "ENKPS-28" : Blocks
"ENKPS-27" <.. "ENKPS-36" : Cloners


@enduml
