@startuml
'https://plantuml.com/class-diagram

' GENERATE CLASS DIAGRAM ===========
' Generated at    : Tue May 14 15:57:50 CEST 2024

title Jira Tickets for Epic New user | Mobile phone product
hide empty members

legend
Jira Ticket Status
----
(To Do) : 3
----
Jira Ticket Types
----
(Task) : 1
(Epic) : 1
(Story) : 1
end legend


' Tickets =======
class "ENKPS-51" << (S,lightgreen) >> {
  Summary : New user | Mobile phone page overview 
  Status : To Do
  Type : Story
}

class "ENKPS-52" << (T,lightblue) >> {
  Summary : New user | Mobile page filters 
  Status : To Do
  Type : Task
}

class "ENKPS-49" << (E,green) >> {
  Summary : New user | Mobile phone product
  Status : To Do
  Type : Epic
}



' Links =======

' Parents =======
"ENKPS-49" <|-- "ENKPS-51"
"ENKPS-49" <|-- "ENKPS-52"

"ENKPS-52" <.. "ENKPS-51" : Issue split



@enduml
